<svg xmlns="http://www.w3.org/2000/svg" xmlns:xlink="http://www.w3.org/1999/xlink" contentStyleType="text/css" data-diagram-type="SEQUENCE" height="1023px" preserveAspectRatio="none" style="width:1921px;height:1023px;background:#FFFFFF;" version="1.1" viewBox="0 0 1921 1023" width="1921px" zoomAndPan="magnify"><defs/><g><g><title>BookingServiceImpl</title><rect fill="#90EE90" height="903.1484" style="stroke:#181818;stroke-width:1;" width="10" x="339.8931" y="67.4297"/></g><g><title>CargoRepositoryJPA</title><rect fill="#ADD8E6" height="29.1328" style="stroke:#181818;stroke-width:1;" width="10" x="515.6099" y="96.5625"/></g><g><title>Cargo</title><rect fill="#FFB6C1" height="29.1328" style="stroke:#181818;stroke-width:1;" width="10" x="636.54" y="154.8281"/></g><g><title>ExternalRoutingService</title><rect fill="#ADD8E6" height="728.3516" style="stroke:#181818;stroke-width:1;" width="10" x="774.3276" y="213.0938"/></g><g><title>GraphTraversalService</title><rect fill="#ADD8E6" height="29.1328" style="stroke:#181818;stroke-width:1;" width="10" x="1085.0874" y="432.1563"/></g><g><title>VoyageRepositoryJPA</title><rect fill="#ADD8E6" height="29.1328" style="stroke:#181818;stroke-width:1;" width="10" x="1277.6616" y="580.8203"/></g><g><title>LocationRepositoryJPA</title><rect fill="#ADD8E6" height="87.3984" style="stroke:#181818;stroke-width:1;" width="10" x="1470.2358" y="639.0859"/></g><g><title>RouteSpecification</title><rect fill="#FFB6C1" height="699.2188" style="stroke:#181818;stroke-width:1;" width="10" x="1658.5957" y="242.2266"/></g><g><title>Itinerary</title><rect fill="#FFB6C1" height="16.1641" style="stroke:#181818;stroke-width:1;" width="10" x="1796.3833" y="830.8828"/></g><g><title>Leg</title><rect fill="#FFB6C1" height="4" style="stroke:#181818;stroke-width:1;" width="10" x="1870.9556" y="780.75"/></g><rect fill="none" height="437.0234" style="stroke:#000000;stroke-width:1.5;" width="1255.9868" x="659.6118" y="476.2891"/><rect fill="none" height="250.1953" style="stroke:#000000;stroke-width:1.5;" width="1235.9868" x="669.6118" y="542.5547"/><g><title>BookingServiceImpl</title><rect fill="#000000" fill-opacity="0.00000" height="952.2813" width="8" x="340.8931" y="36.2969"/><line style="stroke:#181818;stroke-width:0.5;stroke-dasharray:5.0,5.0;" x1="344.0347" x2="344.0347" y1="36.2969" y2="988.5781"/></g><g><title>CargoRepositoryJPA</title><rect fill="#000000" fill-opacity="0.00000" height="952.2813" width="8" x="516.6099" y="36.2969"/><line style="stroke:#181818;stroke-width:0.5;stroke-dasharray:5.0,5.0;" x1="519.7515" x2="519.7515" y1="36.2969" y2="988.5781"/></g><g><title>Cargo</title><rect fill="#000000" fill-opacity="0.00000" height="952.2813" width="8" x="637.54" y="36.2969"/><line style="stroke:#181818;stroke-width:0.5;stroke-dasharray:5.0,5.0;" x1="641.4683" x2="641.4683" y1="36.2969" y2="988.5781"/></g><g><title>ExternalRoutingService</title><rect fill="#000000" fill-opacity="0.00000" height="952.2813" width="8" x="775.3276" y="36.2969"/><line style="stroke:#181818;stroke-width:0.5;stroke-dasharray:5.0,5.0;" x1="778.6118" x2="778.6118" y1="36.2969" y2="988.5781"/></g><g><title>GraphTraversalService</title><rect fill="#000000" fill-opacity="0.00000" height="952.2813" width="8" x="1086.0874" y="36.2969"/><line style="stroke:#181818;stroke-width:0.5;stroke-dasharray:5.0,5.0;" x1="1089.5859" x2="1089.5859" y1="36.2969" y2="988.5781"/></g><g><title>VoyageRepositoryJPA</title><rect fill="#000000" fill-opacity="0.00000" height="952.2813" width="8" x="1278.6616" y="36.2969"/><line style="stroke:#181818;stroke-width:0.5;stroke-dasharray:5.0,5.0;" x1="1282.5889" x2="1282.5889" y1="36.2969" y2="988.5781"/></g><g><title>LocationRepositoryJPA</title><rect fill="#000000" fill-opacity="0.00000" height="952.2813" width="8" x="1471.2358" y="36.2969"/><line style="stroke:#181818;stroke-width:0.5;stroke-dasharray:5.0,5.0;" x1="1474.7344" x2="1474.7344" y1="36.2969" y2="988.5781"/></g><g><title>RouteSpecification</title><rect fill="#000000" fill-opacity="0.00000" height="952.2813" width="8" x="1659.5957" y="36.2969"/><line style="stroke:#181818;stroke-width:0.5;stroke-dasharray:5.0,5.0;" x1="1662.7373" x2="1662.7373" y1="36.2969" y2="988.5781"/></g><g><title>Itinerary</title><rect fill="#000000" fill-opacity="0.00000" height="158.1797" width="8" x="1797.3833" y="830.3984"/><line style="stroke:#181818;stroke-width:0.5;stroke-dasharray:5.0,5.0;" x1="1800.4541" x2="1800.4541" y1="830.3984" y2="988.5781"/></g><g><title>Leg</title><rect fill="#000000" fill-opacity="0.00000" height="221.9609" width="8" x="1871.9556" y="766.6172"/><line style="stroke:#181818;stroke-width:0.5;stroke-dasharray:5.0,5.0;" x1="1875.3125" x2="1875.3125" y1="766.6172" y2="988.5781"/></g><g class="participant participant-head" data-participant="bs"><rect fill="#90EE90" height="30.2969" rx="2.5" ry="2.5" style="stroke:#181818;stroke-width:0.5;" width="165.7168" x="262.0347" y="5"/><text fill="#000000" font-family="Courier" font-size="14" lengthAdjust="spacing" textLength="151.7168" x="269.0347" y="24.9951">BookingServiceImpl</text></g><g class="participant participant-tail" data-participant="bs"><rect fill="#90EE90" height="30.2969" rx="2.5" ry="2.5" style="stroke:#181818;stroke-width:0.5;" width="165.7168" x="262.0347" y="987.5781"/><text fill="#000000" font-family="Courier" font-size="14" lengthAdjust="spacing" textLength="151.7168" x="269.0347" y="1007.5732">BookingServiceImpl</text></g><g class="participant participant-head" data-participant="cr"><rect fill="#ADD8E6" height="30.2969" rx="2.5" ry="2.5" style="stroke:#181818;stroke-width:0.5;" width="165.7168" x="437.7515" y="5"/><text fill="#000000" font-family="Courier" font-size="14" lengthAdjust="spacing" textLength="151.7168" x="444.7515" y="24.9951">CargoRepositoryJPA</text></g><g class="participant participant-tail" data-participant="cr"><rect fill="#ADD8E6" height="30.2969" rx="2.5" ry="2.5" style="stroke:#181818;stroke-width:0.5;" width="165.7168" x="437.7515" y="987.5781"/><text fill="#000000" font-family="Courier" font-size="14" lengthAdjust="spacing" textLength="151.7168" x="444.7515" y="1007.5732">CargoRepositoryJPA</text></g><g class="participant participant-head" data-participant="c"><rect fill="#FFB6C1" height="30.2969" rx="2.5" ry="2.5" style="stroke:#181818;stroke-width:0.5;" width="56.1436" x="613.4683" y="5"/><text fill="#000000" font-family="Courier" font-size="14" lengthAdjust="spacing" textLength="42.1436" x="620.4683" y="24.9951">Cargo</text></g><g class="participant participant-tail" data-participant="c"><rect fill="#FFB6C1" height="30.2969" rx="2.5" ry="2.5" style="stroke:#181818;stroke-width:0.5;" width="56.1436" x="613.4683" y="987.5781"/><text fill="#000000" font-family="Courier" font-size="14" lengthAdjust="spacing" textLength="42.1436" x="620.4683" y="1007.5732">Cargo</text></g><g class="participant participant-head" data-participant="rs"><rect fill="#ADD8E6" height="30.2969" rx="2.5" ry="2.5" style="stroke:#181818;stroke-width:0.5;" width="199.4316" x="679.6118" y="5"/><text fill="#000000" font-family="Courier" font-size="14" lengthAdjust="spacing" textLength="185.4316" x="686.6118" y="24.9951">ExternalRoutingService</text></g><g class="participant participant-tail" data-participant="rs"><rect fill="#ADD8E6" height="30.2969" rx="2.5" ry="2.5" style="stroke:#181818;stroke-width:0.5;" width="199.4316" x="679.6118" y="987.5781"/><text fill="#000000" font-family="Courier" font-size="14" lengthAdjust="spacing" textLength="185.4316" x="686.6118" y="1007.5732">ExternalRoutingService</text></g><g class="participant participant-head" data-participant="gts"><rect fill="#ADD8E6" height="30.2969" rx="2.5" ry="2.5" style="stroke:#181818;stroke-width:0.5;" width="191.0029" x="994.5859" y="5"/><text fill="#000000" font-family="Courier" font-size="14" lengthAdjust="spacing" textLength="177.0029" x="1001.5859" y="24.9951">GraphTraversalService</text></g><g class="participant participant-tail" data-participant="gts"><rect fill="#ADD8E6" height="30.2969" rx="2.5" ry="2.5" style="stroke:#181818;stroke-width:0.5;" width="191.0029" x="994.5859" y="987.5781"/><text fill="#000000" font-family="Courier" font-size="14" lengthAdjust="spacing" textLength="177.0029" x="1001.5859" y="1007.5732">GraphTraversalService</text></g><g class="participant participant-head" data-participant="vr"><rect fill="#ADD8E6" height="30.2969" rx="2.5" ry="2.5" style="stroke:#181818;stroke-width:0.5;" width="174.1455" x="1195.5889" y="5"/><text fill="#000000" font-family="Courier" font-size="14" lengthAdjust="spacing" textLength="160.1455" x="1202.5889" y="24.9951">VoyageRepositoryJPA</text></g><g class="participant participant-tail" data-participant="vr"><rect fill="#ADD8E6" height="30.2969" rx="2.5" ry="2.5" style="stroke:#181818;stroke-width:0.5;" width="174.1455" x="1195.5889" y="987.5781"/><text fill="#000000" font-family="Courier" font-size="14" lengthAdjust="spacing" textLength="160.1455" x="1202.5889" y="1007.5732">VoyageRepositoryJPA</text></g><g class="participant participant-head" data-participant="lr"><rect fill="#ADD8E6" height="30.2969" rx="2.5" ry="2.5" style="stroke:#181818;stroke-width:0.5;" width="191.0029" x="1379.7344" y="5"/><text fill="#000000" font-family="Courier" font-size="14" lengthAdjust="spacing" textLength="177.0029" x="1386.7344" y="24.9951">LocationRepositoryJPA</text></g><g class="participant participant-tail" data-participant="lr"><rect fill="#ADD8E6" height="30.2969" rx="2.5" ry="2.5" style="stroke:#181818;stroke-width:0.5;" width="191.0029" x="1379.7344" y="987.5781"/><text fill="#000000" font-family="Courier" font-size="14" lengthAdjust="spacing" textLength="177.0029" x="1386.7344" y="1007.5732">LocationRepositoryJPA</text></g><g class="participant participant-head" data-participant="rspec"><rect fill="#FFB6C1" height="30.2969" rx="2.5" ry="2.5" style="stroke:#181818;stroke-width:0.5;" width="165.7168" x="1580.7373" y="5"/><text fill="#000000" font-family="Courier" font-size="14" lengthAdjust="spacing" textLength="151.7168" x="1587.7373" y="24.9951">RouteSpecification</text></g><g class="participant participant-tail" data-participant="rspec"><rect fill="#FFB6C1" height="30.2969" rx="2.5" ry="2.5" style="stroke:#181818;stroke-width:0.5;" width="165.7168" x="1580.7373" y="987.5781"/><text fill="#000000" font-family="Courier" font-size="14" lengthAdjust="spacing" textLength="151.7168" x="1587.7373" y="1007.5732">RouteSpecification</text></g><g class="participant participant-tail" data-participant="itin"><rect fill="#FFB6C1" height="30.2969" rx="2.5" ry="2.5" style="stroke:#181818;stroke-width:0.5;" width="89.8584" x="1756.4541" y="987.5781"/><text fill="#000000" font-family="Courier" font-size="14" lengthAdjust="spacing" textLength="75.8584" x="1763.4541" y="1007.5732">Itinerary</text></g><g class="participant participant-tail" data-participant="leg"><rect fill="#FFB6C1" height="30.2969" rx="2.5" ry="2.5" style="stroke:#181818;stroke-width:0.5;" width="39.2861" x="1856.3125" y="987.5781"/><text fill="#000000" font-family="Courier" font-size="14" lengthAdjust="spacing" textLength="25.2861" x="1863.3125" y="1007.5732">Leg</text></g><g><title>BookingServiceImpl</title><rect fill="#90EE90" height="903.1484" style="stroke:#181818;stroke-width:1;" width="10" x="339.8931" y="67.4297"/></g><g><title>CargoRepositoryJPA</title><rect fill="#ADD8E6" height="29.1328" style="stroke:#181818;stroke-width:1;" width="10" x="515.6099" y="96.5625"/></g><g><title>Cargo</title><rect fill="#FFB6C1" height="29.1328" style="stroke:#181818;stroke-width:1;" width="10" x="636.54" y="154.8281"/></g><g><title>ExternalRoutingService</title><rect fill="#ADD8E6" height="728.3516" style="stroke:#181818;stroke-width:1;" width="10" x="774.3276" y="213.0938"/></g><g><title>GraphTraversalService</title><rect fill="#ADD8E6" height="29.1328" style="stroke:#181818;stroke-width:1;" width="10" x="1085.0874" y="432.1563"/></g><g><title>VoyageRepositoryJPA</title><rect fill="#ADD8E6" height="29.1328" style="stroke:#181818;stroke-width:1;" width="10" x="1277.6616" y="580.8203"/></g><g><title>LocationRepositoryJPA</title><rect fill="#ADD8E6" height="87.3984" style="stroke:#181818;stroke-width:1;" width="10" x="1470.2358" y="639.0859"/></g><g><title>RouteSpecification</title><rect fill="#FFB6C1" height="699.2188" style="stroke:#181818;stroke-width:1;" width="10" x="1658.5957" y="242.2266"/></g><g><title>Itinerary</title><rect fill="#FFB6C1" height="16.1641" style="stroke:#181818;stroke-width:1;" width="10" x="1796.3833" y="830.8828"/></g><g><title>Leg</title><rect fill="#FFB6C1" height="4" style="stroke:#181818;stroke-width:1;" width="10" x="1870.9556" y="780.75"/></g><g class="message" data-participant-1="bs" data-participant-2="bs"><polygon fill="#181818" points="327.8931,63.4297,337.8931,67.4297,327.8931,71.4297,331.8931,67.4297" style="stroke:#181818;stroke-width:1;"/><line style="stroke:#181818;stroke-width:1;" x1="0" x2="333.8931" y1="67.4297" y2="67.4297"/><text fill="#000000" font-family="Courier" font-size="13" lengthAdjust="spacing" textLength="320.8931" x="9.5" y="62.3638">requestPossibleRoutesForCargo(trackingId)</text></g><g class="message" data-participant-1="bs" data-participant-2="cr"><polygon fill="#181818" points="503.6099,92.5625,513.6099,96.5625,503.6099,100.5625,507.6099,96.5625" style="stroke:#181818;stroke-width:1;"/><line style="stroke:#181818;stroke-width:1;" x1="349.8931" x2="509.6099" y1="96.5625" y2="96.5625"/><text fill="#000000" font-family="Courier" font-size="13" lengthAdjust="spacing" textLength="125.2266" x="370.1382" y="91.4966">find(trackingId)</text></g><g class="message" data-participant-1="cr" data-participant-2="bs"><polygon fill="#181818" points="360.8931,121.6953,350.8931,125.6953,360.8931,129.6953,356.8931,125.6953" style="stroke:#181818;stroke-width:1;"/><line style="stroke:#181818;stroke-width:1;stroke-dasharray:2.0,2.0;" x1="354.8931" x2="519.6099" y1="125.6953" y2="125.6953"/><text fill="#000000" font-family="Courier" font-size="13" lengthAdjust="spacing" textLength="39.1333" x="415.6848" y="120.6294">cargo</text></g><g class="message" data-participant-1="bs" data-participant-2="c"><polygon fill="#181818" points="624.54,150.8281,634.54,154.8281,624.54,158.8281,628.54,154.8281" style="stroke:#181818;stroke-width:1;"/><line style="stroke:#181818;stroke-width:1;" x1="349.8931" x2="630.54" y1="154.8281" y2="154.8281"/><text fill="#000000" font-family="Courier" font-size="13" lengthAdjust="spacing" textLength="156.5332" x="414.95" y="149.7622">routeSpecification()</text></g><g class="message" data-participant-1="c" data-participant-2="bs"><polygon fill="#181818" points="360.8931,179.9609,350.8931,183.9609,360.8931,187.9609,356.8931,183.9609" style="stroke:#181818;stroke-width:1;"/><line style="stroke:#181818;stroke-width:1;stroke-dasharray:2.0,2.0;" x1="354.8931" x2="640.54" y1="183.9609" y2="183.9609"/><text fill="#000000" font-family="Courier" font-size="13" lengthAdjust="spacing" textLength="101.7466" x="444.8433" y="178.895">specification</text></g><g class="message" data-participant-1="bs" data-participant-2="rs"><polygon fill="#181818" points="762.3276,209.0938,772.3276,213.0938,762.3276,217.0938,766.3276,213.0938" style="stroke:#181818;stroke-width:1;"/><line style="stroke:#181818;stroke-width:1;" x1="349.8931" x2="768.3276" y1="213.0938" y2="213.0938"/><text fill="#000000" font-family="Courier" font-size="13" lengthAdjust="spacing" textLength="328.7197" x="397.7505" y="208.0278">fetchRoutesForSpecification(specification)</text></g><g class="message" data-participant-1="rs" data-participant-2="rspec"><polygon fill="#181818" points="1646.5957,238.2266,1656.5957,242.2266,1646.5957,246.2266,1650.5957,242.2266" style="stroke:#181818;stroke-width:1;"/><line style="stroke:#181818;stroke-width:1;" x1="784.3276" x2="1652.5957" y1="242.2266" y2="242.2266"/><text fill="#000000" font-family="Courier" font-size="13" lengthAdjust="spacing" textLength="62.6133" x="1190.155" y="237.1606">origin()</text></g><g class="message" data-participant-1="rspec" data-participant-2="rs"><polygon fill="#181818" points="795.3276,267.3594,785.3276,271.3594,795.3276,275.3594,791.3276,271.3594" style="stroke:#181818;stroke-width:1;"/><line style="stroke:#181818;stroke-width:1;stroke-dasharray:2.0,2.0;" x1="789.3276" x2="1657.5957" y1="271.3594" y2="271.3594"/><text fill="#000000" font-family="Courier" font-size="13" lengthAdjust="spacing" textLength="46.96" x="1197.9817" y="266.2935">origin</text></g><g class="message" data-participant-1="rs" data-participant-2="rspec"><polygon fill="#181818" points="1646.5957,296.4922,1656.5957,300.4922,1646.5957,304.4922,1650.5957,300.4922" style="stroke:#181818;stroke-width:1;"/><line style="stroke:#181818;stroke-width:1;" x1="784.3276" x2="1652.5957" y1="300.4922" y2="300.4922"/><text fill="#000000" font-family="Courier" font-size="13" lengthAdjust="spacing" textLength="101.7466" x="1170.5884" y="295.4263">destination()</text></g><g class="message" data-participant-1="rspec" data-participant-2="rs"><polygon fill="#181818" points="795.3276,325.625,785.3276,329.625,795.3276,333.625,791.3276,329.625" style="stroke:#181818;stroke-width:1;"/><line style="stroke:#181818;stroke-width:1;stroke-dasharray:2.0,2.0;" x1="789.3276" x2="1657.5957" y1="329.625" y2="329.625"/><text fill="#000000" font-family="Courier" font-size="13" lengthAdjust="spacing" textLength="86.0933" x="1178.415" y="324.5591">destination</text></g><g class="message" data-participant-1="rs" data-participant-2="rspec"><polygon fill="#181818" points="1646.5957,354.7578,1656.5957,358.7578,1646.5957,362.7578,1650.5957,358.7578" style="stroke:#181818;stroke-width:1;"/><line style="stroke:#181818;stroke-width:1;" x1="784.3276" x2="1652.5957" y1="358.7578" y2="358.7578"/><text fill="#000000" font-family="Courier" font-size="13" lengthAdjust="spacing" textLength="133.0532" x="1154.9351" y="353.6919">arrivalDeadline()</text></g><g class="message" data-participant-1="rspec" data-participant-2="rs"><polygon fill="#181818" points="795.3276,383.8906,785.3276,387.8906,795.3276,391.8906,791.3276,387.8906" style="stroke:#181818;stroke-width:1;"/><line style="stroke:#181818;stroke-width:1;stroke-dasharray:2.0,2.0;" x1="789.3276" x2="1657.5957" y1="387.8906" y2="387.8906"/><text fill="#000000" font-family="Courier" font-size="13" lengthAdjust="spacing" textLength="62.6133" x="1190.155" y="382.8247">deadline</text></g><g class="message" data-participant-1="rs" data-participant-2="gts"><polygon fill="#181818" points="1073.0874,428.1563,1083.0874,432.1563,1073.0874,436.1563,1077.0874,432.1563" style="stroke:#181818;stroke-width:1;"/><line style="stroke:#181818;stroke-width:1;" x1="784.3276" x2="1079.0874" y1="432.1563" y2="432.1563"/><text fill="#000000" font-family="Courier" font-size="13" lengthAdjust="spacing" textLength="273.9331" x="797.741" y="411.9575">findShortestPath(origin.unLocode(),</text><text fill="#000000" font-family="Courier" font-size="13" lengthAdjust="spacing" textLength="281.7598" x="793.8276" y="427.0903">destination.unLocode(),&#160;limitations)</text></g><g class="message" data-participant-1="gts" data-participant-2="rs"><polygon fill="#181818" points="795.3276,457.2891,785.3276,461.2891,795.3276,465.2891,791.3276,461.2891" style="stroke:#181818;stroke-width:1;"/><line style="stroke:#181818;stroke-width:1;stroke-dasharray:2.0,2.0;" x1="789.3276" x2="1089.0874" y1="461.2891" y2="461.2891"/><text fill="#000000" font-family="Courier" font-size="13" lengthAdjust="spacing" textLength="93.9199" x="890.2476" y="456.2231">transitPaths</text></g><path d="M659.6118,476.2891 L735.9185,476.2891 L735.9185,483.4219 L725.9185,493.4219 L659.6118,493.4219 L659.6118,476.2891" fill="#EEEEEE" style="stroke:#000000;stroke-width:1.5;"/><rect fill="none" height="437.0234" style="stroke:#000000;stroke-width:1.5;" width="1255.9868" x="659.6118" y="476.2891"/><text fill="#000000" font-family="Courier" font-size="13" font-weight="bold" lengthAdjust="spacing" textLength="31.3066" x="674.6118" y="489.356">loop</text><text fill="#000000" font-family="Courier" font-size="11" font-weight="bold" lengthAdjust="spacing" textLength="145.6963" x="750.9185" y="488.4995">[for&#160;each&#160;transitPath]</text><g class="message" data-participant-1="rs" data-participant-2="rs"><line style="stroke:#181818;stroke-width:1;" x1="784.3276" x2="826.3276" y1="514.5547" y2="514.5547"/><line style="stroke:#181818;stroke-width:1;" x1="826.3276" x2="826.3276" y1="514.5547" y2="527.5547"/><line style="stroke:#181818;stroke-width:1;" x1="785.3276" x2="826.3276" y1="527.5547" y2="527.5547"/><polygon fill="#181818" points="795.3276,523.5547,785.3276,527.5547,795.3276,531.5547,791.3276,527.5547" style="stroke:#181818;stroke-width:1;"/><text fill="#000000" font-family="Courier" font-size="13" lengthAdjust="spacing" textLength="187.8398" x="791.3276" y="509.4888">toItinerary(transitPath)</text></g><path d="M669.6118,542.5547 L745.9185,542.5547 L745.9185,549.6875 L735.9185,559.6875 L669.6118,559.6875 L669.6118,542.5547" fill="#EEEEEE" style="stroke:#000000;stroke-width:1.5;"/><rect fill="none" height="250.1953" style="stroke:#000000;stroke-width:1.5;" width="1235.9868" x="669.6118" y="542.5547"/><text fill="#000000" font-family="Courier" font-size="13" font-weight="bold" lengthAdjust="spacing" textLength="31.3066" x="684.6118" y="555.6216">loop</text><text fill="#000000" font-family="Courier" font-size="11" font-weight="bold" lengthAdjust="spacing" textLength="145.6963" x="760.9185" y="554.7651">[for&#160;each&#160;transitEdge]</text><g class="message" data-participant-1="rs" data-participant-2="vr"><polygon fill="#181818" points="1265.6616,576.8203,1275.6616,580.8203,1265.6616,584.8203,1269.6616,580.8203" style="stroke:#181818;stroke-width:1;"/><line style="stroke:#181818;stroke-width:1;" x1="784.3276" x2="1271.6616" y1="580.8203" y2="580.8203"/><text fill="#000000" font-family="Courier" font-size="13" lengthAdjust="spacing" textLength="140.8799" x="960.5547" y="575.7544">find(voyageNumber)</text></g><g class="message" data-participant-1="vr" data-participant-2="rs"><polygon fill="#181818" points="795.3276,605.9531,785.3276,609.9531,795.3276,613.9531,791.3276,609.9531" style="stroke:#181818;stroke-width:1;"/><line style="stroke:#181818;stroke-width:1;stroke-dasharray:2.0,2.0;" x1="789.3276" x2="1281.6616" y1="609.9531" y2="609.9531"/><text fill="#000000" font-family="Courier" font-size="13" lengthAdjust="spacing" textLength="46.96" x="1010.0146" y="604.8872">voyage</text></g><g class="message" data-participant-1="rs" data-participant-2="lr"><polygon fill="#181818" points="1458.2358,635.0859,1468.2358,639.0859,1458.2358,643.0859,1462.2358,639.0859" style="stroke:#181818;stroke-width:1;"/><line style="stroke:#181818;stroke-width:1;" x1="784.3276" x2="1464.2358" y1="639.0859" y2="639.0859"/><text fill="#000000" font-family="Courier" font-size="13" lengthAdjust="spacing" textLength="140.8799" x="1056.8418" y="634.02">find(fromUnLocode)</text></g><g class="message" data-participant-1="lr" data-participant-2="rs"><polygon fill="#181818" points="795.3276,664.2188,785.3276,668.2188,795.3276,672.2188,791.3276,668.2188" style="stroke:#181818;stroke-width:1;"/><line style="stroke:#181818;stroke-width:1;stroke-dasharray:2.0,2.0;" x1="789.3276" x2="1469.2358" y1="668.2188" y2="668.2188"/><text fill="#000000" font-family="Courier" font-size="13" lengthAdjust="spacing" textLength="93.9199" x="1080.3218" y="663.1528">fromLocation</text></g><g class="message" data-participant-1="rs" data-participant-2="lr"><polygon fill="#181818" points="1458.2358,693.3516,1468.2358,697.3516,1458.2358,701.3516,1462.2358,697.3516" style="stroke:#181818;stroke-width:1;"/><line style="stroke:#181818;stroke-width:1;" x1="784.3276" x2="1464.2358" y1="697.3516" y2="697.3516"/><text fill="#000000" font-family="Courier" font-size="13" lengthAdjust="spacing" textLength="125.2266" x="1064.6685" y="692.2856">find(toUnLocode)</text></g><g class="message" data-participant-1="lr" data-participant-2="rs"><polygon fill="#181818" points="795.3276,722.4844,785.3276,726.4844,795.3276,730.4844,791.3276,726.4844" style="stroke:#181818;stroke-width:1;"/><line style="stroke:#181818;stroke-width:1;stroke-dasharray:2.0,2.0;" x1="789.3276" x2="1474.2358" y1="726.4844" y2="726.4844"/><text fill="#000000" font-family="Courier" font-size="13" lengthAdjust="spacing" textLength="78.2666" x="1090.6484" y="721.4185">toLocation</text></g><g class="message" data-participant-1="rs" data-participant-2="leg"><polygon fill="#181818" points="1844.3125,766.75,1854.3125,770.75,1844.3125,774.75,1848.3125,770.75" style="stroke:#181818;stroke-width:1;"/><line style="stroke:#181818;stroke-width:1;" x1="784.3276" x2="1850.3125" y1="770.75" y2="770.75"/><text fill="#000000" font-family="Courier" font-size="13" lengthAdjust="spacing" textLength="195.6665" x="1222.4868" y="750.5513">new(voyage,&#160;fromLocation,</text><text fill="#000000" font-family="Courier" font-size="13" lengthAdjust="spacing" textLength="226.9731" x="1206.8335" y="765.6841">toLocation,&#160;fromDate,&#160;toDate)</text></g><rect fill="#FFB6C1" height="30.2969" rx="2.5" ry="2.5" style="stroke:#181818;stroke-width:0.5;" width="39.2861" x="1856.3125" y="737.4531"/><text fill="#000000" font-family="Courier" font-size="14" lengthAdjust="spacing" textLength="25.2861" x="1863.3125" y="757.4482">Leg</text><g class="message" data-participant-1="leg" data-participant-2="rs"><polygon fill="#181818" points="795.3276,780.75,785.3276,784.75,795.3276,788.75,791.3276,784.75" style="stroke:#181818;stroke-width:1;"/><line style="stroke:#181818;stroke-width:1;stroke-dasharray:2.0,2.0;" x1="789.3276" x2="1874.9556" y1="784.75" y2="784.75"/></g><g class="message" data-participant-1="rs" data-participant-2="itin"><polygon fill="#181818" points="1744.4541,816.8828,1754.4541,820.8828,1744.4541,824.8828,1748.4541,820.8828" style="stroke:#181818;stroke-width:1;"/><line style="stroke:#181818;stroke-width:1;" x1="784.3276" x2="1750.4541" y1="820.8828" y2="820.8828"/><text fill="#000000" font-family="Courier" font-size="13" lengthAdjust="spacing" textLength="70.4399" x="1235.1709" y="815.8169">new(legs)</text></g><rect fill="#FFB6C1" height="30.2969" rx="2.5" ry="2.5" style="stroke:#181818;stroke-width:0.5;" width="89.8584" x="1756.4541" y="799.75"/><text fill="#000000" font-family="Courier" font-size="14" lengthAdjust="spacing" textLength="75.8584" x="1763.4541" y="819.7451">Itinerary</text><g class="message" data-participant-1="itin" data-participant-2="rs"><polygon fill="#181818" points="795.3276,843.0469,785.3276,847.0469,795.3276,851.0469,791.3276,847.0469" style="stroke:#181818;stroke-width:1;"/><line style="stroke:#181818;stroke-width:1;stroke-dasharray:2.0,2.0;" x1="789.3276" x2="1800.3833" y1="847.0469" y2="847.0469"/></g><g class="message" data-participant-1="rs" data-participant-2="rspec"><polygon fill="#181818" points="1646.5957,872.1797,1656.5957,876.1797,1646.5957,880.1797,1650.5957,876.1797" style="stroke:#181818;stroke-width:1;"/><line style="stroke:#181818;stroke-width:1;" x1="784.3276" x2="1652.5957" y1="876.1797" y2="876.1797"/><text fill="#000000" font-family="Courier" font-size="13" lengthAdjust="spacing" textLength="187.8398" x="1127.5417" y="871.1138">isSatisfiedBy(itinerary)</text></g><g class="message" data-participant-1="rspec" data-participant-2="rs"><polygon fill="#181818" points="795.3276,901.3125,785.3276,905.3125,795.3276,909.3125,791.3276,905.3125" style="stroke:#181818;stroke-width:1;"/><line style="stroke:#181818;stroke-width:1;stroke-dasharray:2.0,2.0;" x1="789.3276" x2="1657.5957" y1="905.3125" y2="905.3125"/><text fill="#000000" font-family="Courier" font-size="13" lengthAdjust="spacing" textLength="70.4399" x="1186.2417" y="900.2466">satisfied</text></g><g class="message" data-participant-1="rs" data-participant-2="bs"><polygon fill="#181818" points="360.8931,937.4453,350.8931,941.4453,360.8931,945.4453,356.8931,941.4453" style="stroke:#181818;stroke-width:1;"/><line style="stroke:#181818;stroke-width:1;stroke-dasharray:2.0,2.0;" x1="354.8931" x2="778.3276" y1="941.4453" y2="941.4453"/><text fill="#000000" font-family="Courier" font-size="13" lengthAdjust="spacing" textLength="86.0933" x="521.5637" y="936.3794">itineraries</text></g><g class="message" data-participant-1="bs" data-participant-2="bs"><polygon fill="#181818" points="11,966.5781,1,970.5781,11,974.5781,7,970.5781" style="stroke:#181818;stroke-width:1;"/><line style="stroke:#181818;stroke-width:1;stroke-dasharray:2.0,2.0;" x1="5" x2="343.8931" y1="970.5781" y2="970.5781"/><text fill="#000000" font-family="Courier" font-size="13" lengthAdjust="spacing" textLength="86.0933" x="129.3999" y="965.5122">itineraries</text></g><!--SRC=[VLHDZziW4BtxLw3saaYR_e2eghIVrLRRrMhJzj9U21xRQ0cu0tQRVzyns0GIkpauWdbltXjcmBv9tNBa1tOmseW6pG5OnPM5miPG2HNlb7imsZrpYj-Q3YLWWh3mkmCju2jOoskuLhBMJ81sX2e8ugIGBTUElRinXbZr3h2N0XuFhNh7k6LxozuJgN4r0kYSSiknDg_G6YkTmUENbsjF4JXIzgg36KO0ZPXMwhSSS_-Np6ckNatdJeOy2UrYvi_8s-ORyXxGSfMIQhVC-c6ET2gN9VJB9JmPmPqq-fAabab3BR1hGSXA1lfO3sqj7iGZbG_8yUYnabQBq2UeWmMeKqpnS_E9EhXbE8o1TI_6MhbNuEtO1uE-7ok7N0ozVopN1HTEzjp1UUCBMbCoWLjMILtES_BEqsepwej1foWXGSQCvExYT5PfqhGY4LFQ59-bdZ8ZeIfmeedbvXfPXaGmdx82nsI4tZA3ifQPlOiUXetDQ20GphAKr0kffqfpGX8xOt54abHtm4j5ap733869HeCVchLh3BgX_Tmrgs3eGwTfa4r9MQv-wKGp3J0b3zBvRPjKV7QXXkLaWQP2qwKOX6pQ4y8KXJAcPPL1HljD2YqO_J3sp9au-Qi4jVOm_vdDT5_MuAEdRFqqhRs_vy_TOG-uZg1eBx_kKxZ7M5VWnqXIMK-3d8kgIRIYD_lxU9epecfML9r41_xqsYoAE7CfaUHm9cQOCQyIymB1Rq5zBWNrbcduCnxYLUQBXkSa4K9tbEQAX8V_kRBp9ofwfkrWUjRew0fq6HoFReT7CPcUOHcy4i46yPZZ_04TWdulaKqaO-fiElr5b7P7zTfAGdbpNCbfMDSZChsJTW8MtZhQ-7vDD0dPJV7qV8EUyO-RpVz8Urly0m00]--></g></svg>