<svg xmlns="http://www.w3.org/2000/svg" xmlns:xlink="http://www.w3.org/1999/xlink" contentStyleType="text/css" data-diagram-type="SEQUENCE" height="509px" preserveAspectRatio="none" style="width:1138px;height:509px;background:#FFFFFF;" version="1.1" viewBox="0 0 1138 509" width="1138px" zoomAndPan="magnify"><defs/><g><g><title>BookingServiceImpl</title><rect fill="#90EE90" height="388.4609" style="stroke:#181818;stroke-width:1;" width="10" x="339.8931" y="67.4297"/></g><g><title>CargoRepositoryJPA</title><rect fill="#ADD8E6" height="345.3281" style="stroke:#181818;stroke-width:1;" width="10" x="515.6099" y="96.5625"/></g><g><title>Cargo</title><rect fill="#FFB6C1" height="273.0625" style="stroke:#181818;stroke-width:1;" width="10" x="636.54" y="125.6953"/></g><g><title>RouteSpecification</title><rect fill="#FFB6C1" height="29.1328" style="stroke:#181818;stroke-width:1;" width="10" x="853.3799" y="196.9609"/></g><g><title>Itinerary</title><rect fill="#FFB6C1" height="29.1328" style="stroke:#181818;stroke-width:1;" width="10" x="991.1675" y="255.2266"/></g><g><title>Delivery</title><rect fill="#FFB6C1" height="29.1328" style="stroke:#181818;stroke-width:1;" width="10" x="1086.8115" y="355.625"/></g><g><title>BookingServiceImpl</title><rect fill="#000000" fill-opacity="0.00000" height="437.5938" width="8" x="340.8931" y="36.2969"/><line style="stroke:#181818;stroke-width:0.5;stroke-dasharray:5.0,5.0;" x1="344.0347" x2="344.0347" y1="36.2969" y2="473.8906"/></g><g><title>CargoRepositoryJPA</title><rect fill="#000000" fill-opacity="0.00000" height="437.5938" width="8" x="516.6099" y="36.2969"/><line style="stroke:#181818;stroke-width:0.5;stroke-dasharray:5.0,5.0;" x1="519.7515" x2="519.7515" y1="36.2969" y2="473.8906"/></g><g><title>Cargo</title><rect fill="#000000" fill-opacity="0.00000" height="437.5938" width="8" x="637.54" y="36.2969"/><line style="stroke:#181818;stroke-width:0.5;stroke-dasharray:5.0,5.0;" x1="641.4683" x2="641.4683" y1="36.2969" y2="473.8906"/></g><g><title>RouteSpecification</title><rect fill="#000000" fill-opacity="0.00000" height="437.5938" width="8" x="854.3799" y="36.2969"/><line style="stroke:#181818;stroke-width:0.5;stroke-dasharray:5.0,5.0;" x1="857.5215" x2="857.5215" y1="36.2969" y2="473.8906"/></g><g><title>Itinerary</title><rect fill="#000000" fill-opacity="0.00000" height="437.5938" width="8" x="992.1675" y="36.2969"/><line style="stroke:#181818;stroke-width:0.5;stroke-dasharray:5.0,5.0;" x1="995.2383" x2="995.2383" y1="36.2969" y2="473.8906"/></g><g><title>Delivery</title><rect fill="#000000" fill-opacity="0.00000" height="437.5938" width="8" x="1087.8115" y="36.2969"/><line style="stroke:#181818;stroke-width:0.5;stroke-dasharray:5.0,5.0;" x1="1091.0967" x2="1091.0967" y1="36.2969" y2="473.8906"/></g><g class="participant participant-head" data-participant="bs"><rect fill="#90EE90" height="30.2969" rx="2.5" ry="2.5" style="stroke:#181818;stroke-width:0.5;" width="165.7168" x="262.0347" y="5"/><text fill="#000000" font-family="Courier" font-size="14" lengthAdjust="spacing" textLength="151.7168" x="269.0347" y="24.9951">BookingServiceImpl</text></g><g class="participant participant-tail" data-participant="bs"><rect fill="#90EE90" height="30.2969" rx="2.5" ry="2.5" style="stroke:#181818;stroke-width:0.5;" width="165.7168" x="262.0347" y="472.8906"/><text fill="#000000" font-family="Courier" font-size="14" lengthAdjust="spacing" textLength="151.7168" x="269.0347" y="492.8857">BookingServiceImpl</text></g><g class="participant participant-head" data-participant="cr"><rect fill="#ADD8E6" height="30.2969" rx="2.5" ry="2.5" style="stroke:#181818;stroke-width:0.5;" width="165.7168" x="437.7515" y="5"/><text fill="#000000" font-family="Courier" font-size="14" lengthAdjust="spacing" textLength="151.7168" x="444.7515" y="24.9951">CargoRepositoryJPA</text></g><g class="participant participant-tail" data-participant="cr"><rect fill="#ADD8E6" height="30.2969" rx="2.5" ry="2.5" style="stroke:#181818;stroke-width:0.5;" width="165.7168" x="437.7515" y="472.8906"/><text fill="#000000" font-family="Courier" font-size="14" lengthAdjust="spacing" textLength="151.7168" x="444.7515" y="492.8857">CargoRepositoryJPA</text></g><g class="participant participant-head" data-participant="c"><rect fill="#FFB6C1" height="30.2969" rx="2.5" ry="2.5" style="stroke:#181818;stroke-width:0.5;" width="56.1436" x="613.4683" y="5"/><text fill="#000000" font-family="Courier" font-size="14" lengthAdjust="spacing" textLength="42.1436" x="620.4683" y="24.9951">Cargo</text></g><g class="participant participant-tail" data-participant="c"><rect fill="#FFB6C1" height="30.2969" rx="2.5" ry="2.5" style="stroke:#181818;stroke-width:0.5;" width="56.1436" x="613.4683" y="472.8906"/><text fill="#000000" font-family="Courier" font-size="14" lengthAdjust="spacing" textLength="42.1436" x="620.4683" y="492.8857">Cargo</text></g><g class="participant participant-head" data-participant="rs"><rect fill="#FFB6C1" height="30.2969" rx="2.5" ry="2.5" style="stroke:#181818;stroke-width:0.5;" width="165.7168" x="775.5215" y="5"/><text fill="#000000" font-family="Courier" font-size="14" lengthAdjust="spacing" textLength="151.7168" x="782.5215" y="24.9951">RouteSpecification</text></g><g class="participant participant-tail" data-participant="rs"><rect fill="#FFB6C1" height="30.2969" rx="2.5" ry="2.5" style="stroke:#181818;stroke-width:0.5;" width="165.7168" x="775.5215" y="472.8906"/><text fill="#000000" font-family="Courier" font-size="14" lengthAdjust="spacing" textLength="151.7168" x="782.5215" y="492.8857">RouteSpecification</text></g><g class="participant participant-head" data-participant="i"><rect fill="#FFB6C1" height="30.2969" rx="2.5" ry="2.5" style="stroke:#181818;stroke-width:0.5;" width="89.8584" x="951.2383" y="5"/><text fill="#000000" font-family="Courier" font-size="14" lengthAdjust="spacing" textLength="75.8584" x="958.2383" y="24.9951">Itinerary</text></g><g class="participant participant-tail" data-participant="i"><rect fill="#FFB6C1" height="30.2969" rx="2.5" ry="2.5" style="stroke:#181818;stroke-width:0.5;" width="89.8584" x="951.2383" y="472.8906"/><text fill="#000000" font-family="Courier" font-size="14" lengthAdjust="spacing" textLength="75.8584" x="958.2383" y="492.8857">Itinerary</text></g><g class="participant participant-head" data-participant="d"><rect fill="#FFB6C1" height="30.2969" rx="2.5" ry="2.5" style="stroke:#181818;stroke-width:0.5;" width="81.4297" x="1051.0967" y="5"/><text fill="#000000" font-family="Courier" font-size="14" lengthAdjust="spacing" textLength="67.4297" x="1058.0967" y="24.9951">Delivery</text></g><g class="participant participant-tail" data-participant="d"><rect fill="#FFB6C1" height="30.2969" rx="2.5" ry="2.5" style="stroke:#181818;stroke-width:0.5;" width="81.4297" x="1051.0967" y="472.8906"/><text fill="#000000" font-family="Courier" font-size="14" lengthAdjust="spacing" textLength="67.4297" x="1058.0967" y="492.8857">Delivery</text></g><g><title>BookingServiceImpl</title><rect fill="#90EE90" height="388.4609" style="stroke:#181818;stroke-width:1;" width="10" x="339.8931" y="67.4297"/></g><g><title>CargoRepositoryJPA</title><rect fill="#ADD8E6" height="345.3281" style="stroke:#181818;stroke-width:1;" width="10" x="515.6099" y="96.5625"/></g><g><title>Cargo</title><rect fill="#FFB6C1" height="273.0625" style="stroke:#181818;stroke-width:1;" width="10" x="636.54" y="125.6953"/></g><g><title>RouteSpecification</title><rect fill="#FFB6C1" height="29.1328" style="stroke:#181818;stroke-width:1;" width="10" x="853.3799" y="196.9609"/></g><g><title>Itinerary</title><rect fill="#FFB6C1" height="29.1328" style="stroke:#181818;stroke-width:1;" width="10" x="991.1675" y="255.2266"/></g><g><title>Delivery</title><rect fill="#FFB6C1" height="29.1328" style="stroke:#181818;stroke-width:1;" width="10" x="1086.8115" y="355.625"/></g><g class="message" data-participant-1="bs" data-participant-2="bs"><polygon fill="#181818" points="327.8931,63.4297,337.8931,67.4297,327.8931,71.4297,331.8931,67.4297" style="stroke:#181818;stroke-width:1;"/><line style="stroke:#181818;stroke-width:1;" x1="0" x2="333.8931" y1="67.4297" y2="67.4297"/><text fill="#000000" font-family="Courier" font-size="13" lengthAdjust="spacing" textLength="320.8931" x="9.5" y="62.3638">assignCargoToRoute(itinerary,&#160;trackingId)</text></g><g class="message" data-participant-1="bs" data-participant-2="cr"><polygon fill="#181818" points="503.6099,92.5625,513.6099,96.5625,503.6099,100.5625,507.6099,96.5625" style="stroke:#181818;stroke-width:1;"/><line style="stroke:#181818;stroke-width:1;" x1="349.8931" x2="509.6099" y1="96.5625" y2="96.5625"/><text fill="#000000" font-family="Courier" font-size="13" lengthAdjust="spacing" textLength="125.2266" x="370.1382" y="91.4966">find(trackingId)</text></g><g class="message" data-participant-1="bs" data-participant-2="c"><polygon fill="#181818" points="624.54,121.6953,634.54,125.6953,624.54,129.6953,628.54,125.6953" style="stroke:#181818;stroke-width:1;"/><line style="stroke:#181818;stroke-width:1;" x1="349.8931" x2="630.54" y1="125.6953" y2="125.6953"/><text fill="#000000" font-family="Courier" font-size="13" lengthAdjust="spacing" textLength="187.8398" x="399.2966" y="120.6294">assignToRoute(itinerary)</text></g><g class="message" data-participant-1="c" data-participant-2="c"><line style="stroke:#181818;stroke-width:1;" x1="646.54" x2="688.54" y1="154.8281" y2="154.8281"/><line style="stroke:#181818;stroke-width:1;" x1="688.54" x2="688.54" y1="154.8281" y2="167.8281"/><line style="stroke:#181818;stroke-width:1;" x1="647.54" x2="688.54" y1="167.8281" y2="167.8281"/><polygon fill="#181818" points="657.54,163.8281,647.54,167.8281,657.54,171.8281,653.54,167.8281" style="stroke:#181818;stroke-width:1;"/><text fill="#000000" font-family="Courier" font-size="13" lengthAdjust="spacing" textLength="156.5332" x="653.54" y="149.7622">routeSpecification()</text></g><g class="message" data-participant-1="c" data-participant-2="rs"><polygon fill="#181818" points="841.3799,192.9609,851.3799,196.9609,841.3799,200.9609,845.3799,196.9609" style="stroke:#181818;stroke-width:1;"/><line style="stroke:#181818;stroke-width:1;" x1="646.54" x2="847.3799" y1="196.9609" y2="196.9609"/><text fill="#000000" font-family="Courier" font-size="13" lengthAdjust="spacing" textLength="187.8398" x="656.04" y="191.895">isSatisfiedBy(itinerary)</text></g><g class="message" data-participant-1="rs" data-participant-2="c"><polygon fill="#181818" points="657.54,222.0938,647.54,226.0938,657.54,230.0938,653.54,226.0938" style="stroke:#181818;stroke-width:1;"/><line style="stroke:#181818;stroke-width:1;stroke-dasharray:2.0,2.0;" x1="651.54" x2="857.3799" y1="226.0938" y2="226.0938"/><text fill="#000000" font-family="Courier" font-size="13" lengthAdjust="spacing" textLength="70.4399" x="717.24" y="221.0278">satisfied</text></g><g class="message" data-participant-1="c" data-participant-2="i"><polygon fill="#181818" points="979.1675,251.2266,989.1675,255.2266,979.1675,259.2266,983.1675,255.2266" style="stroke:#181818;stroke-width:1;"/><line style="stroke:#181818;stroke-width:1;" x1="646.54" x2="985.1675" y1="255.2266" y2="255.2266"/><text fill="#000000" font-family="Courier" font-size="13" lengthAdjust="spacing" textLength="46.96" x="795.3738" y="250.1606">legs()</text></g><g class="message" data-participant-1="i" data-participant-2="c"><polygon fill="#181818" points="657.54,280.3594,647.54,284.3594,657.54,288.3594,653.54,284.3594" style="stroke:#181818;stroke-width:1;"/><line style="stroke:#181818;stroke-width:1;stroke-dasharray:2.0,2.0;" x1="651.54" x2="995.1675" y1="284.3594" y2="284.3594"/><text fill="#000000" font-family="Courier" font-size="13" lengthAdjust="spacing" textLength="31.3066" x="805.7004" y="279.2935">legs</text></g><g class="message" data-participant-1="c" data-participant-2="c"><line style="stroke:#181818;stroke-width:1;" x1="646.54" x2="688.54" y1="313.4922" y2="313.4922"/><line style="stroke:#181818;stroke-width:1;" x1="688.54" x2="688.54" y1="313.4922" y2="326.4922"/><line style="stroke:#181818;stroke-width:1;" x1="647.54" x2="688.54" y1="326.4922" y2="326.4922"/><polygon fill="#181818" points="657.54,322.4922,647.54,326.4922,657.54,330.4922,653.54,326.4922" style="stroke:#181818;stroke-width:1;"/><text fill="#000000" font-family="Courier" font-size="13" lengthAdjust="spacing" textLength="125.2266" x="653.54" y="308.4263">itinerary&#160;=&#160;legs</text></g><g class="message" data-participant-1="c" data-participant-2="d"><polygon fill="#181818" points="1074.8115,351.625,1084.8115,355.625,1074.8115,359.625,1078.8115,355.625" style="stroke:#181818;stroke-width:1;"/><line style="stroke:#181818;stroke-width:1;" x1="646.54" x2="1080.8115" y1="355.625" y2="355.625"/><text fill="#000000" font-family="Courier" font-size="13" lengthAdjust="spacing" textLength="360.0264" x="686.6626" y="350.5591">updateOnRouting(routeSpecification,&#160;itinerary)</text></g><g class="message" data-participant-1="d" data-participant-2="c"><polygon fill="#181818" points="657.54,380.7578,647.54,384.7578,657.54,388.7578,653.54,384.7578" style="stroke:#181818;stroke-width:1;"/><line style="stroke:#181818;stroke-width:1;stroke-dasharray:2.0,2.0;" x1="651.54" x2="1090.8115" y1="384.7578" y2="384.7578"/><text fill="#000000" font-family="Courier" font-size="13" lengthAdjust="spacing" textLength="62.6133" x="837.8691" y="379.6919">delivery</text></g><g class="message" data-participant-1="c" data-participant-2="bs"><polygon fill="#181818" points="360.8931,394.7578,350.8931,398.7578,360.8931,402.7578,356.8931,398.7578" style="stroke:#181818;stroke-width:1;"/><line style="stroke:#181818;stroke-width:1;stroke-dasharray:2.0,2.0;" x1="354.8931" x2="640.54" y1="398.7578" y2="398.7578"/></g><g class="message" data-participant-1="bs" data-participant-2="cr"><polygon fill="#181818" points="503.6099,423.8906,513.6099,427.8906,503.6099,431.8906,507.6099,427.8906" style="stroke:#181818;stroke-width:1;"/><line style="stroke:#181818;stroke-width:1;" x1="349.8931" x2="509.6099" y1="427.8906" y2="427.8906"/><text fill="#000000" font-family="Courier" font-size="13" lengthAdjust="spacing" textLength="93.9199" x="385.7915" y="422.8247">store(cargo)</text></g><g class="message" data-participant-1="cr" data-participant-2="bs"><polygon fill="#181818" points="360.8931,437.8906,350.8931,441.8906,360.8931,445.8906,356.8931,441.8906" style="stroke:#181818;stroke-width:1;"/><line style="stroke:#181818;stroke-width:1;stroke-dasharray:2.0,2.0;" x1="354.8931" x2="519.6099" y1="441.8906" y2="441.8906"/></g><g class="message" data-participant-1="bs" data-participant-2="bs"><polygon fill="#181818" points="11,451.8906,1,455.8906,11,459.8906,7,455.8906" style="stroke:#181818;stroke-width:1;"/><line style="stroke:#181818;stroke-width:1;stroke-dasharray:2.0,2.0;" x1="5" x2="343.8931" y1="455.8906" y2="455.8906"/></g><!--SRC=[TPFBRi8m44Nt-GghtGI9_43KLWAgIbJgGz0TAsDFmeZ4JiSE4d_VoOiw49Rsd3kFExOxegaaoLAKrbXr85k2o6JX87ANa8PCreL_iyP_IewlR4q8510EVcim2Zx0EPd3ei3S20N6CnKnub5X9OqN3qjhMPLlWKweO5rMnOEGJkoTU6JHmUS4OCQIbQJSRg2o3hsby_ltefKewYNxeeO9HGVrJ8NcE6OsjlQmhK1XXafwjAOLaBkhM7iqG9BEBOXtkLSey0GzfaCisYKlF6hA0SSEjMt-sBQJ68ViS-59giQajPv5KdayIG_N3aLyvcIAKf6XqV6aPcpH81dAtrGEbQEsLQ-Z6y_YMHSa7WhTbkzSXg2NvyciOtFvb7HvtQ2BD0HmNnXJKK3kuY3Ho7mSqZHKc07_Exzq8vuxh8leLDILPlRBD5wmV_7jZ7CnDSjeiNfeGVUx3zlGRR5sy-6r2dVe-6L3h9e7mOxI5Cu_QVUK95VNVFe3]--></g></svg>