<svg xmlns="http://www.w3.org/2000/svg" xmlns:xlink="http://www.w3.org/1999/xlink" contentStyleType="text/css" data-diagram-type="SEQUENCE" height="686px" preserveAspectRatio="none" style="width:1383px;height:686px;background:#FFFFFF;" version="1.1" viewBox="0 0 1383 686" width="1383px" zoomAndPan="magnify"><defs/><g><g><title>BookingServiceImpl</title><rect fill="#90EE90" height="565.3906" style="stroke:#181818;stroke-width:1;" width="10" x="324.2397" y="67.4297"/></g><g><title>CargoRepositoryJPA</title><rect fill="#ADD8E6" height="522.2578" style="stroke:#181818;stroke-width:1;" width="10" x="499.9565" y="96.5625"/></g><g><title>LocationRepositoryJPA</title><rect fill="#ADD8E6" height="29.1328" style="stroke:#181818;stroke-width:1;" width="10" x="688.3164" y="125.6953"/></g><g><title>Cargo</title><rect fill="#FFB6C1" height="391.7266" style="stroke:#181818;stroke-width:1;" width="10" x="821.8896" y="183.9609"/></g><g><title>RouteSpecification</title><rect fill="#FFB6C1" height="177.7969" style="stroke:#181818;stroke-width:1;" width="10" x="1098.5161" y="325.625"/></g><g><title>Itinerary</title><rect fill="#FFB6C1" height="29.1328" style="stroke:#181818;stroke-width:1;" width="10" x="1236.3037" y="416.0234"/></g><g><title>Delivery</title><rect fill="#FFB6C1" height="29.1328" style="stroke:#181818;stroke-width:1;" width="10" x="1331.9478" y="532.5547"/></g><g><title>BookingServiceImpl</title><rect fill="#000000" fill-opacity="0.00000" height="614.5234" width="8" x="325.2397" y="36.2969"/><line style="stroke:#181818;stroke-width:0.5;stroke-dasharray:5.0,5.0;" x1="328.3813" x2="328.3813" y1="36.2969" y2="650.8203"/></g><g><title>CargoRepositoryJPA</title><rect fill="#000000" fill-opacity="0.00000" height="614.5234" width="8" x="500.9565" y="36.2969"/><line style="stroke:#181818;stroke-width:0.5;stroke-dasharray:5.0,5.0;" x1="504.0981" x2="504.0981" y1="36.2969" y2="650.8203"/></g><g><title>LocationRepositoryJPA</title><rect fill="#000000" fill-opacity="0.00000" height="614.5234" width="8" x="689.3164" y="36.2969"/><line style="stroke:#181818;stroke-width:0.5;stroke-dasharray:5.0,5.0;" x1="692.8149" x2="692.8149" y1="36.2969" y2="650.8203"/></g><g><title>Cargo</title><rect fill="#000000" fill-opacity="0.00000" height="614.5234" width="8" x="822.8896" y="36.2969"/><line style="stroke:#181818;stroke-width:0.5;stroke-dasharray:5.0,5.0;" x1="826.8179" x2="826.8179" y1="36.2969" y2="650.8203"/></g><g><title>RouteSpecification</title><rect fill="#000000" fill-opacity="0.00000" height="339.3281" width="8" x="1099.5161" y="311.4922"/><line style="stroke:#181818;stroke-width:0.5;stroke-dasharray:5.0,5.0;" x1="1102.6577" x2="1102.6577" y1="311.4922" y2="650.8203"/></g><g><title>Itinerary</title><rect fill="#000000" fill-opacity="0.00000" height="614.5234" width="8" x="1237.3037" y="36.2969"/><line style="stroke:#181818;stroke-width:0.5;stroke-dasharray:5.0,5.0;" x1="1240.3745" x2="1240.3745" y1="36.2969" y2="650.8203"/></g><g><title>Delivery</title><rect fill="#000000" fill-opacity="0.00000" height="614.5234" width="8" x="1332.9478" y="36.2969"/><line style="stroke:#181818;stroke-width:0.5;stroke-dasharray:5.0,5.0;" x1="1336.2329" x2="1336.2329" y1="36.2969" y2="650.8203"/></g><g class="participant participant-head" data-participant="bs"><rect fill="#90EE90" height="30.2969" rx="2.5" ry="2.5" style="stroke:#181818;stroke-width:0.5;" width="165.7168" x="246.3813" y="5"/><text fill="#000000" font-family="Courier" font-size="14" lengthAdjust="spacing" textLength="151.7168" x="253.3813" y="24.9951">BookingServiceImpl</text></g><g class="participant participant-tail" data-participant="bs"><rect fill="#90EE90" height="30.2969" rx="2.5" ry="2.5" style="stroke:#181818;stroke-width:0.5;" width="165.7168" x="246.3813" y="649.8203"/><text fill="#000000" font-family="Courier" font-size="14" lengthAdjust="spacing" textLength="151.7168" x="253.3813" y="669.8154">BookingServiceImpl</text></g><g class="participant participant-head" data-participant="cr"><rect fill="#ADD8E6" height="30.2969" rx="2.5" ry="2.5" style="stroke:#181818;stroke-width:0.5;" width="165.7168" x="422.0981" y="5"/><text fill="#000000" font-family="Courier" font-size="14" lengthAdjust="spacing" textLength="151.7168" x="429.0981" y="24.9951">CargoRepositoryJPA</text></g><g class="participant participant-tail" data-participant="cr"><rect fill="#ADD8E6" height="30.2969" rx="2.5" ry="2.5" style="stroke:#181818;stroke-width:0.5;" width="165.7168" x="422.0981" y="649.8203"/><text fill="#000000" font-family="Courier" font-size="14" lengthAdjust="spacing" textLength="151.7168" x="429.0981" y="669.8154">CargoRepositoryJPA</text></g><g class="participant participant-head" data-participant="lr"><rect fill="#ADD8E6" height="30.2969" rx="2.5" ry="2.5" style="stroke:#181818;stroke-width:0.5;" width="191.0029" x="597.8149" y="5"/><text fill="#000000" font-family="Courier" font-size="14" lengthAdjust="spacing" textLength="177.0029" x="604.8149" y="24.9951">LocationRepositoryJPA</text></g><g class="participant participant-tail" data-participant="lr"><rect fill="#ADD8E6" height="30.2969" rx="2.5" ry="2.5" style="stroke:#181818;stroke-width:0.5;" width="191.0029" x="597.8149" y="649.8203"/><text fill="#000000" font-family="Courier" font-size="14" lengthAdjust="spacing" textLength="177.0029" x="604.8149" y="669.8154">LocationRepositoryJPA</text></g><g class="participant participant-head" data-participant="c"><rect fill="#FFB6C1" height="30.2969" rx="2.5" ry="2.5" style="stroke:#181818;stroke-width:0.5;" width="56.1436" x="798.8179" y="5"/><text fill="#000000" font-family="Courier" font-size="14" lengthAdjust="spacing" textLength="42.1436" x="805.8179" y="24.9951">Cargo</text></g><g class="participant participant-tail" data-participant="c"><rect fill="#FFB6C1" height="30.2969" rx="2.5" ry="2.5" style="stroke:#181818;stroke-width:0.5;" width="56.1436" x="798.8179" y="649.8203"/><text fill="#000000" font-family="Courier" font-size="14" lengthAdjust="spacing" textLength="42.1436" x="805.8179" y="669.8154">Cargo</text></g><g class="participant participant-tail" data-participant="rs"><rect fill="#FFB6C1" height="30.2969" rx="2.5" ry="2.5" style="stroke:#181818;stroke-width:0.5;" width="165.7168" x="1020.6577" y="649.8203"/><text fill="#000000" font-family="Courier" font-size="14" lengthAdjust="spacing" textLength="151.7168" x="1027.6577" y="669.8154">RouteSpecification</text></g><g class="participant participant-head" data-participant="i"><rect fill="#FFB6C1" height="30.2969" rx="2.5" ry="2.5" style="stroke:#181818;stroke-width:0.5;" width="89.8584" x="1196.3745" y="5"/><text fill="#000000" font-family="Courier" font-size="14" lengthAdjust="spacing" textLength="75.8584" x="1203.3745" y="24.9951">Itinerary</text></g><g class="participant participant-tail" data-participant="i"><rect fill="#FFB6C1" height="30.2969" rx="2.5" ry="2.5" style="stroke:#181818;stroke-width:0.5;" width="89.8584" x="1196.3745" y="649.8203"/><text fill="#000000" font-family="Courier" font-size="14" lengthAdjust="spacing" textLength="75.8584" x="1203.3745" y="669.8154">Itinerary</text></g><g class="participant participant-head" data-participant="d"><rect fill="#FFB6C1" height="30.2969" rx="2.5" ry="2.5" style="stroke:#181818;stroke-width:0.5;" width="81.4297" x="1296.2329" y="5"/><text fill="#000000" font-family="Courier" font-size="14" lengthAdjust="spacing" textLength="67.4297" x="1303.2329" y="24.9951">Delivery</text></g><g class="participant participant-tail" data-participant="d"><rect fill="#FFB6C1" height="30.2969" rx="2.5" ry="2.5" style="stroke:#181818;stroke-width:0.5;" width="81.4297" x="1296.2329" y="649.8203"/><text fill="#000000" font-family="Courier" font-size="14" lengthAdjust="spacing" textLength="67.4297" x="1303.2329" y="669.8154">Delivery</text></g><g><title>BookingServiceImpl</title><rect fill="#90EE90" height="565.3906" style="stroke:#181818;stroke-width:1;" width="10" x="324.2397" y="67.4297"/></g><g><title>CargoRepositoryJPA</title><rect fill="#ADD8E6" height="522.2578" style="stroke:#181818;stroke-width:1;" width="10" x="499.9565" y="96.5625"/></g><g><title>LocationRepositoryJPA</title><rect fill="#ADD8E6" height="29.1328" style="stroke:#181818;stroke-width:1;" width="10" x="688.3164" y="125.6953"/></g><g><title>Cargo</title><rect fill="#FFB6C1" height="391.7266" style="stroke:#181818;stroke-width:1;" width="10" x="821.8896" y="183.9609"/></g><g><title>RouteSpecification</title><rect fill="#FFB6C1" height="177.7969" style="stroke:#181818;stroke-width:1;" width="10" x="1098.5161" y="325.625"/></g><g><title>Itinerary</title><rect fill="#FFB6C1" height="29.1328" style="stroke:#181818;stroke-width:1;" width="10" x="1236.3037" y="416.0234"/></g><g><title>Delivery</title><rect fill="#FFB6C1" height="29.1328" style="stroke:#181818;stroke-width:1;" width="10" x="1331.9478" y="532.5547"/></g><g class="message" data-participant-1="bs" data-participant-2="bs"><polygon fill="#181818" points="312.2397,63.4297,322.2397,67.4297,312.2397,71.4297,316.2397,67.4297" style="stroke:#181818;stroke-width:1;"/><line style="stroke:#181818;stroke-width:1;" x1="0" x2="318.2397" y1="67.4297" y2="67.4297"/><text fill="#000000" font-family="Courier" font-size="13" lengthAdjust="spacing" textLength="305.2397" x="9.5" y="62.3638">changeDestination(trackingId,&#160;unLocode)</text></g><g class="message" data-participant-1="bs" data-participant-2="cr"><polygon fill="#181818" points="487.9565,92.5625,497.9565,96.5625,487.9565,100.5625,491.9565,96.5625" style="stroke:#181818;stroke-width:1;"/><line style="stroke:#181818;stroke-width:1;" x1="334.2397" x2="493.9565" y1="96.5625" y2="96.5625"/><text fill="#000000" font-family="Courier" font-size="13" lengthAdjust="spacing" textLength="125.2266" x="354.4849" y="91.4966">find(trackingId)</text></g><g class="message" data-participant-1="bs" data-participant-2="lr"><polygon fill="#181818" points="676.3164,121.6953,686.3164,125.6953,676.3164,129.6953,680.3164,125.6953" style="stroke:#181818;stroke-width:1;"/><line style="stroke:#181818;stroke-width:1;" x1="334.2397" x2="682.3164" y1="125.6953" y2="125.6953"/><text fill="#000000" font-family="Courier" font-size="13" lengthAdjust="spacing" textLength="109.5732" x="456.4915" y="120.6294">find(unLocode)</text></g><g class="message" data-participant-1="lr" data-participant-2="bs"><polygon fill="#181818" points="345.2397,150.8281,335.2397,154.8281,345.2397,158.8281,341.2397,154.8281" style="stroke:#181818;stroke-width:1;"/><line style="stroke:#181818;stroke-width:1;stroke-dasharray:2.0,2.0;" x1="339.2397" x2="692.3164" y1="154.8281" y2="154.8281"/><text fill="#000000" font-family="Courier" font-size="13" lengthAdjust="spacing" textLength="109.5732" x="458.9915" y="149.7622">newDestination</text></g><g class="message" data-participant-1="bs" data-participant-2="c"><polygon fill="#181818" points="809.8896,179.9609,819.8896,183.9609,809.8896,187.9609,813.8896,183.9609" style="stroke:#181818;stroke-width:1;"/><line style="stroke:#181818;stroke-width:1;" x1="334.2397" x2="815.8896" y1="183.9609" y2="183.9609"/><text fill="#000000" font-family="Courier" font-size="13" lengthAdjust="spacing" textLength="62.6133" x="546.7581" y="178.895">origin()</text></g><g class="message" data-participant-1="c" data-participant-2="bs"><polygon fill="#181818" points="345.2397,209.0938,335.2397,213.0938,345.2397,217.0938,341.2397,213.0938" style="stroke:#181818;stroke-width:1;"/><line style="stroke:#181818;stroke-width:1;stroke-dasharray:2.0,2.0;" x1="339.2397" x2="820.8896" y1="213.0938" y2="213.0938"/><text fill="#000000" font-family="Courier" font-size="13" lengthAdjust="spacing" textLength="46.96" x="554.5847" y="208.0278">origin</text></g><g class="message" data-participant-1="bs" data-participant-2="c"><polygon fill="#181818" points="809.8896,238.2266,819.8896,242.2266,809.8896,246.2266,813.8896,242.2266" style="stroke:#181818;stroke-width:1;"/><line style="stroke:#181818;stroke-width:1;" x1="334.2397" x2="815.8896" y1="242.2266" y2="242.2266"/><text fill="#000000" font-family="Courier" font-size="13" lengthAdjust="spacing" textLength="156.5332" x="499.7981" y="237.1606">routeSpecification()</text></g><g class="message" data-participant-1="c" data-participant-2="bs"><polygon fill="#181818" points="345.2397,267.3594,335.2397,271.3594,345.2397,275.3594,341.2397,271.3594" style="stroke:#181818;stroke-width:1;"/><line style="stroke:#181818;stroke-width:1;stroke-dasharray:2.0,2.0;" x1="339.2397" x2="820.8896" y1="271.3594" y2="271.3594"/><text fill="#000000" font-family="Courier" font-size="13" lengthAdjust="spacing" textLength="101.7466" x="527.1914" y="266.2935">specification</text></g><g class="message" data-participant-1="bs" data-participant-2="rs"><polygon fill="#181818" points="1008.6577,311.625,1018.6577,315.625,1008.6577,319.625,1012.6577,315.625" style="stroke:#181818;stroke-width:1;"/><line style="stroke:#181818;stroke-width:1;" x1="334.2397" x2="1014.6577" y1="315.625" y2="315.625"/><text fill="#000000" font-family="Courier" font-size="13" lengthAdjust="spacing" textLength="211.3198" x="571.7888" y="295.4263">new(origin,&#160;newDestination,</text><text fill="#000000" font-family="Courier" font-size="13" lengthAdjust="spacing" textLength="250.4531" x="552.2222" y="310.5591">specification.arrivalDeadline())</text></g><rect fill="#FFB6C1" height="30.2969" rx="2.5" ry="2.5" style="stroke:#181818;stroke-width:0.5;" width="165.7168" x="1020.6577" y="282.3281"/><text fill="#000000" font-family="Courier" font-size="14" lengthAdjust="spacing" textLength="151.7168" x="1027.6577" y="302.3232">RouteSpecification</text><g class="message" data-participant-1="bs" data-participant-2="c"><polygon fill="#181818" points="809.8896,340.7578,819.8896,344.7578,809.8896,348.7578,813.8896,344.7578" style="stroke:#181818;stroke-width:1;"/><line style="stroke:#181818;stroke-width:1;" x1="334.2397" x2="815.8896" y1="344.7578" y2="344.7578"/><text fill="#000000" font-family="Courier" font-size="13" lengthAdjust="spacing" textLength="273.9331" x="441.0981" y="339.6919">specifyNewRoute(routeSpecification)</text></g><g class="message" data-participant-1="c" data-participant-2="c"><line style="stroke:#181818;stroke-width:1;" x1="831.8896" x2="873.8896" y1="373.8906" y2="373.8906"/><line style="stroke:#181818;stroke-width:1;" x1="873.8896" x2="873.8896" y1="373.8906" y2="386.8906"/><line style="stroke:#181818;stroke-width:1;" x1="832.8896" x2="873.8896" y1="386.8906" y2="386.8906"/><polygon fill="#181818" points="842.8896,382.8906,832.8896,386.8906,842.8896,390.8906,838.8896,386.8906" style="stroke:#181818;stroke-width:1;"/><text fill="#000000" font-family="Courier" font-size="13" lengthAdjust="spacing" textLength="86.0933" x="838.8896" y="368.8247">itinerary()</text></g><g class="message" data-participant-1="c" data-participant-2="i"><polygon fill="#181818" points="1224.3037,412.0234,1234.3037,416.0234,1224.3037,420.0234,1228.3037,416.0234" style="stroke:#181818;stroke-width:1;"/><line style="stroke:#181818;stroke-width:1;" x1="831.8896" x2="1230.3037" y1="416.0234" y2="416.0234"/><text fill="#000000" font-family="Courier" font-size="13" lengthAdjust="spacing" textLength="46.96" x="1010.6167" y="410.9575">legs()</text></g><g class="message" data-participant-1="i" data-participant-2="c"><polygon fill="#181818" points="842.8896,441.1563,832.8896,445.1563,842.8896,449.1563,838.8896,445.1563" style="stroke:#181818;stroke-width:1;"/><line style="stroke:#181818;stroke-width:1;stroke-dasharray:2.0,2.0;" x1="836.8896" x2="1240.3037" y1="445.1563" y2="445.1563"/><text fill="#000000" font-family="Courier" font-size="13" lengthAdjust="spacing" textLength="31.3066" x="1020.9434" y="440.0903">legs</text></g><g class="message" data-participant-1="c" data-participant-2="rs"><polygon fill="#181818" points="1086.5161,470.2891,1096.5161,474.2891,1086.5161,478.2891,1090.5161,474.2891" style="stroke:#181818;stroke-width:1;"/><line style="stroke:#181818;stroke-width:1;" x1="831.8896" x2="1092.5161" y1="474.2891" y2="474.2891"/><text fill="#000000" font-family="Courier" font-size="13" lengthAdjust="spacing" textLength="242.6265" x="843.8896" y="469.2231">isSatisfiedBy(currentItinerary)</text></g><g class="message" data-participant-1="rs" data-participant-2="c"><polygon fill="#181818" points="842.8896,499.4219,832.8896,503.4219,842.8896,507.4219,838.8896,503.4219" style="stroke:#181818;stroke-width:1;"/><line style="stroke:#181818;stroke-width:1;stroke-dasharray:2.0,2.0;" x1="836.8896" x2="1102.5161" y1="503.4219" y2="503.4219"/><text fill="#000000" font-family="Courier" font-size="13" lengthAdjust="spacing" textLength="70.4399" x="932.4829" y="498.356">satisfied</text></g><g class="message" data-participant-1="c" data-participant-2="d"><polygon fill="#181818" points="1319.9478,528.5547,1329.9478,532.5547,1319.9478,536.5547,1323.9478,532.5547" style="stroke:#181818;stroke-width:1;"/><line style="stroke:#181818;stroke-width:1;" x1="831.8896" x2="1325.9478" y1="532.5547" y2="532.5547"/><text fill="#000000" font-family="Courier" font-size="13" lengthAdjust="spacing" textLength="360.0264" x="901.9055" y="527.4888">updateOnRouting(routeSpecification,&#160;itinerary)</text></g><g class="message" data-participant-1="d" data-participant-2="c"><polygon fill="#181818" points="842.8896,557.6875,832.8896,561.6875,842.8896,565.6875,838.8896,561.6875" style="stroke:#181818;stroke-width:1;"/><line style="stroke:#181818;stroke-width:1;stroke-dasharray:2.0,2.0;" x1="836.8896" x2="1335.9478" y1="561.6875" y2="561.6875"/><text fill="#000000" font-family="Courier" font-size="13" lengthAdjust="spacing" textLength="62.6133" x="1053.1121" y="556.6216">delivery</text></g><g class="message" data-participant-1="c" data-participant-2="bs"><polygon fill="#181818" points="345.2397,571.6875,335.2397,575.6875,345.2397,579.6875,341.2397,575.6875" style="stroke:#181818;stroke-width:1;"/><line style="stroke:#181818;stroke-width:1;stroke-dasharray:2.0,2.0;" x1="339.2397" x2="825.8896" y1="575.6875" y2="575.6875"/></g><g class="message" data-participant-1="bs" data-participant-2="cr"><polygon fill="#181818" points="487.9565,600.8203,497.9565,604.8203,487.9565,608.8203,491.9565,604.8203" style="stroke:#181818;stroke-width:1;"/><line style="stroke:#181818;stroke-width:1;" x1="334.2397" x2="493.9565" y1="604.8203" y2="604.8203"/><text fill="#000000" font-family="Courier" font-size="13" lengthAdjust="spacing" textLength="93.9199" x="370.1382" y="599.7544">store(cargo)</text></g><g class="message" data-participant-1="cr" data-participant-2="bs"><polygon fill="#181818" points="345.2397,614.8203,335.2397,618.8203,345.2397,622.8203,341.2397,618.8203" style="stroke:#181818;stroke-width:1;"/><line style="stroke:#181818;stroke-width:1;stroke-dasharray:2.0,2.0;" x1="339.2397" x2="503.9565" y1="618.8203" y2="618.8203"/></g><g class="message" data-participant-1="bs" data-participant-2="bs"><polygon fill="#181818" points="11,628.8203,1,632.8203,11,636.8203,7,632.8203" style="stroke:#181818;stroke-width:1;"/><line style="stroke:#181818;stroke-width:1;stroke-dasharray:2.0,2.0;" x1="5" x2="328.2397" y1="632.8203" y2="632.8203"/></g><!--SRC=[TLFBRkCm3BphAuJknG6I_G1ZKQ1ji40MVIoQOtjH9TeXgaWk9QV8tvT-n97oE4gQ6Gw7LFX4roXIMxdrpkiD-It8Ija08anF1YhLslZNk_Yi-Ft1juH02IB0LmjEmnE4e6guirWxgS55HWc6HDJOA1VbpRttpAhNG3lKiDeszaQg83-2_CMaJQm9mEMK1qMrVuN61uoUzl_-t_KKJIFbmxQGCnwzLX6zEoVPwwI-pA0yOXfqdpdcrRSHrWreh70eqHCeN6Mi8ZeWHViUY5TnIx2uWn5cKfXuMznoFgNK6-LgM49WoRvs4KdfBisLcSlMSTVUm4me7N6d8fo6AlZCKffAMQ4p2JlXvAcE57kWN2YI9ygdnMZNmNVYLHX8A9ENKdh26bsHMaYxrvFU04oOT3OCLZdYG_eYX2Ren2cC0ZHOB0RP-OdT-RlB-ByL4RkpIr36yaIBMM8u7__HuA2mVuRlVc-ASyCpqHdkmNXObA69Mucbj527D9biVR3lL0-eD5uSHRiECQovKAWGpFs-q2qHVyff9sU2hOyguO1BfJYjGSkKicqCNxsuhXVUcWlTp8zD9AQpPJQ7ScRSzxIQ4TFuqckTRcxWtmo5xlugvqINuBnTRtyMYvDhFlq0]--></g></svg>