<svg xmlns="http://www.w3.org/2000/svg" xmlns:xlink="http://www.w3.org/1999/xlink" contentStyleType="text/css" data-diagram-type="SEQUENCE" height="670px" preserveAspectRatio="none" style="width:1505px;height:670px;background:#FFFFFF;" version="1.1" viewBox="0 0 1505 670" width="1505px" zoomAndPan="magnify"><defs/><g><g><title>BookingServiceImpl</title><rect fill="#90EE90" height="519.5859" style="stroke:#181818;stroke-width:1;" width="10" x="238.1465" y="97.6953"/></g><g><title>CargoFactory</title><rect fill="#FFB6C1" height="387.9219" style="stroke:#181818;stroke-width:1;" width="10" x="478.4663" y="157.0938"/></g><g><title>LocationRepository</title><rect fill="#ADD8E6" height="87.3984" style="stroke:#181818;stroke-width:1;" width="10" x="708.1328" y="186.2266"/></g><g><title>RouteSpecification</title><rect fill="#FFB6C1" height="16.1641" style="stroke:#181818;stroke-width:1;" width="10" x="911.2178" y="371.0234"/></g><g><title>Cargo</title><rect fill="#FFB6C1" height="89.5625" style="stroke:#181818;stroke-width:1;" width="10" x="1032.1479" y="426.3203"/></g><g><title>Delivery</title><rect fill="#FFB6C1" height="29.1328" style="stroke:#181818;stroke-width:1;" width="10" x="1303.7744" y="472.75"/></g><g><title>CargoRepository</title><rect fill="#ADD8E6" height="285.3906" style="stroke:#181818;stroke-width:1;" width="10" x="1424.7046" y="302.7578"/></g><g><title>BookingServiceImpl</title><rect fill="#000000" fill-opacity="0.00000" height="598.9844" width="8" x="239.1465" y="36.2969"/><line style="stroke:#181818;stroke-width:0.5;stroke-dasharray:5.0,5.0;" x1="242.2881" x2="242.2881" y1="36.2969" y2="635.2813"/></g><g><title>CargoFactory</title><rect fill="#000000" fill-opacity="0.00000" height="598.9844" width="8" x="479.4663" y="36.2969"/><line style="stroke:#181818;stroke-width:0.5;stroke-dasharray:5.0,5.0;" x1="482.894" x2="482.894" y1="36.2969" y2="635.2813"/></g><g><title>LocationRepository</title><rect fill="#000000" fill-opacity="0.00000" height="598.9844" width="8" x="709.1328" y="36.2969"/><line style="stroke:#181818;stroke-width:0.5;stroke-dasharray:5.0,5.0;" x1="712.2744" x2="712.2744" y1="36.2969" y2="635.2813"/></g><g><title>RouteSpecification</title><rect fill="#000000" fill-opacity="0.00000" height="264.7422" width="8" x="912.2178" y="370.5391"/><line style="stroke:#181818;stroke-width:0.5;stroke-dasharray:5.0,5.0;" x1="915.3594" x2="915.3594" y1="370.5391" y2="635.2813"/></g><g><title>Cargo</title><rect fill="#000000" fill-opacity="0.00000" height="209.4453" width="8" x="1033.1479" y="425.8359"/><line style="stroke:#181818;stroke-width:0.5;stroke-dasharray:5.0,5.0;" x1="1037.0762" x2="1037.0762" y1="425.8359" y2="635.2813"/></g><g><title>Delivery</title><rect fill="#000000" fill-opacity="0.00000" height="598.9844" width="8" x="1304.7744" y="36.2969"/><line style="stroke:#181818;stroke-width:0.5;stroke-dasharray:5.0,5.0;" x1="1308.0596" x2="1308.0596" y1="36.2969" y2="635.2813"/></g><g><title>CargoRepository</title><rect fill="#000000" fill-opacity="0.00000" height="598.9844" width="8" x="1425.7046" y="36.2969"/><line style="stroke:#181818;stroke-width:0.5;stroke-dasharray:5.0,5.0;" x1="1429.4893" x2="1429.4893" y1="36.2969" y2="635.2813"/></g><g class="participant participant-head" data-participant="bs"><rect fill="#90EE90" height="30.2969" rx="2.5" ry="2.5" style="stroke:#181818;stroke-width:0.5;" width="165.7168" x="160.2881" y="5"/><text fill="#000000" font-family="Courier" font-size="14" lengthAdjust="spacing" textLength="151.7168" x="167.2881" y="24.9951">BookingServiceImpl</text></g><g class="participant participant-tail" data-participant="bs"><rect fill="#90EE90" height="30.2969" rx="2.5" ry="2.5" style="stroke:#181818;stroke-width:0.5;" width="165.7168" x="160.2881" y="634.2813"/><text fill="#000000" font-family="Courier" font-size="14" lengthAdjust="spacing" textLength="151.7168" x="167.2881" y="654.2764">BookingServiceImpl</text></g><g class="participant participant-head" data-participant="cf"><rect fill="#FFB6C1" height="30.2969" rx="2.5" ry="2.5" style="stroke:#181818;stroke-width:0.5;" width="115.1445" x="425.894" y="5"/><text fill="#000000" font-family="Courier" font-size="14" lengthAdjust="spacing" textLength="101.1445" x="432.894" y="24.9951">CargoFactory</text></g><g class="participant participant-tail" data-participant="cf"><rect fill="#FFB6C1" height="30.2969" rx="2.5" ry="2.5" style="stroke:#181818;stroke-width:0.5;" width="115.1445" x="425.894" y="634.2813"/><text fill="#000000" font-family="Courier" font-size="14" lengthAdjust="spacing" textLength="101.1445" x="432.894" y="654.2764">CargoFactory</text></g><g class="participant participant-head" data-participant="lr"><rect fill="#ADD8E6" height="30.2969" rx="2.5" ry="2.5" style="stroke:#181818;stroke-width:0.5;" width="165.7168" x="630.2744" y="5"/><text fill="#000000" font-family="Courier" font-size="14" lengthAdjust="spacing" textLength="151.7168" x="637.2744" y="24.9951">LocationRepository</text></g><g class="participant participant-tail" data-participant="lr"><rect fill="#ADD8E6" height="30.2969" rx="2.5" ry="2.5" style="stroke:#181818;stroke-width:0.5;" width="165.7168" x="630.2744" y="634.2813"/><text fill="#000000" font-family="Courier" font-size="14" lengthAdjust="spacing" textLength="151.7168" x="637.2744" y="654.2764">LocationRepository</text></g><g class="participant participant-tail" data-participant="rs"><rect fill="#FFB6C1" height="30.2969" rx="2.5" ry="2.5" style="stroke:#181818;stroke-width:0.5;" width="165.7168" x="833.3594" y="634.2813"/><text fill="#000000" font-family="Courier" font-size="14" lengthAdjust="spacing" textLength="151.7168" x="840.3594" y="654.2764">RouteSpecification</text></g><g class="participant participant-tail" data-participant="c"><rect fill="#FFB6C1" height="30.2969" rx="2.5" ry="2.5" style="stroke:#181818;stroke-width:0.5;" width="56.1436" x="1009.0762" y="634.2813"/><text fill="#000000" font-family="Courier" font-size="14" lengthAdjust="spacing" textLength="42.1436" x="1016.0762" y="654.2764">Cargo</text></g><g class="participant participant-head" data-participant="d"><rect fill="#FFB6C1" height="30.2969" rx="2.5" ry="2.5" style="stroke:#181818;stroke-width:0.5;" width="81.4297" x="1268.0596" y="5"/><text fill="#000000" font-family="Courier" font-size="14" lengthAdjust="spacing" textLength="67.4297" x="1275.0596" y="24.9951">Delivery</text></g><g class="participant participant-tail" data-participant="d"><rect fill="#FFB6C1" height="30.2969" rx="2.5" ry="2.5" style="stroke:#181818;stroke-width:0.5;" width="81.4297" x="1268.0596" y="634.2813"/><text fill="#000000" font-family="Courier" font-size="14" lengthAdjust="spacing" textLength="67.4297" x="1275.0596" y="654.2764">Delivery</text></g><g class="participant participant-head" data-participant="cr"><rect fill="#ADD8E6" height="30.2969" rx="2.5" ry="2.5" style="stroke:#181818;stroke-width:0.5;" width="140.4307" x="1359.4893" y="5"/><text fill="#000000" font-family="Courier" font-size="14" lengthAdjust="spacing" textLength="126.4307" x="1366.4893" y="24.9951">CargoRepository</text></g><g class="participant participant-tail" data-participant="cr"><rect fill="#ADD8E6" height="30.2969" rx="2.5" ry="2.5" style="stroke:#181818;stroke-width:0.5;" width="140.4307" x="1359.4893" y="634.2813"/><text fill="#000000" font-family="Courier" font-size="14" lengthAdjust="spacing" textLength="126.4307" x="1366.4893" y="654.2764">CargoRepository</text></g><g><title>BookingServiceImpl</title><rect fill="#90EE90" height="519.5859" style="stroke:#181818;stroke-width:1;" width="10" x="238.1465" y="97.6953"/></g><g><title>CargoFactory</title><rect fill="#FFB6C1" height="387.9219" style="stroke:#181818;stroke-width:1;" width="10" x="478.4663" y="157.0938"/></g><g><title>LocationRepository</title><rect fill="#ADD8E6" height="87.3984" style="stroke:#181818;stroke-width:1;" width="10" x="708.1328" y="186.2266"/></g><g><title>RouteSpecification</title><rect fill="#FFB6C1" height="16.1641" style="stroke:#181818;stroke-width:1;" width="10" x="911.2178" y="371.0234"/></g><g><title>Cargo</title><rect fill="#FFB6C1" height="89.5625" style="stroke:#181818;stroke-width:1;" width="10" x="1032.1479" y="426.3203"/></g><g><title>Delivery</title><rect fill="#FFB6C1" height="29.1328" style="stroke:#181818;stroke-width:1;" width="10" x="1303.7744" y="472.75"/></g><g><title>CargoRepository</title><rect fill="#ADD8E6" height="285.3906" style="stroke:#181818;stroke-width:1;" width="10" x="1424.7046" y="302.7578"/></g><g class="message" data-participant-1="bs" data-participant-2="bs"><polygon fill="#181818" points="226.1465,93.6953,236.1465,97.6953,226.1465,101.6953,230.1465,97.6953" style="stroke:#181818;stroke-width:1;"/><line style="stroke:#181818;stroke-width:1;" x1="0" x2="232.1465" y1="97.6953" y2="97.6953"/><text fill="#000000" font-family="Courier" font-size="13" lengthAdjust="spacing" textLength="219.1465" x="9.5" y="62.3638">bookNewCargo(originUnLocode,</text><text fill="#000000" font-family="Courier" font-size="13" lengthAdjust="spacing" textLength="156.5332" x="40.8066" y="77.4966">destinationUnLocode,</text><text fill="#000000" font-family="Courier" font-size="13" lengthAdjust="spacing" textLength="125.2266" x="56.46" y="92.6294">arrivalDeadline)</text></g><g class="message" data-participant-1="bs" data-participant-2="cf"><polygon fill="#181818" points="466.4663,153.0938,476.4663,157.0938,466.4663,161.0938,470.4663,157.0938" style="stroke:#181818;stroke-width:1;"/><line style="stroke:#181818;stroke-width:1;" x1="248.1465" x2="472.4663" y1="157.0938" y2="157.0938"/><text fill="#000000" font-family="Courier" font-size="13" lengthAdjust="spacing" textLength="211.3198" x="257.6465" y="121.7622">createCargo(originUnLocode,</text><text fill="#000000" font-family="Courier" font-size="13" lengthAdjust="spacing" textLength="156.5332" x="285.0398" y="136.895">destinationUnLocode,</text><text fill="#000000" font-family="Courier" font-size="13" lengthAdjust="spacing" textLength="125.2266" x="300.6931" y="152.0278">arrivalDeadline)</text></g><g class="message" data-participant-1="cf" data-participant-2="lr"><polygon fill="#181818" points="696.1328,182.2266,706.1328,186.2266,696.1328,190.2266,700.1328,186.2266" style="stroke:#181818;stroke-width:1;"/><line style="stroke:#181818;stroke-width:1;" x1="488.4663" x2="702.1328" y1="186.2266" y2="186.2266"/><text fill="#000000" font-family="Courier" font-size="13" lengthAdjust="spacing" textLength="156.5332" x="520.033" y="181.1606">find(originUnLocode)</text></g><g class="message" data-participant-1="lr" data-participant-2="cf"><polygon fill="#181818" points="499.4663,211.3594,489.4663,215.3594,499.4663,219.3594,495.4663,215.3594" style="stroke:#181818;stroke-width:1;"/><line style="stroke:#181818;stroke-width:1;stroke-dasharray:2.0,2.0;" x1="493.4663" x2="707.1328" y1="215.3594" y2="215.3594"/><text fill="#000000" font-family="Courier" font-size="13" lengthAdjust="spacing" textLength="46.96" x="574.8196" y="210.2935">origin</text></g><g class="message" data-participant-1="cf" data-participant-2="lr"><polygon fill="#181818" points="696.1328,240.4922,706.1328,244.4922,696.1328,248.4922,700.1328,244.4922" style="stroke:#181818;stroke-width:1;"/><line style="stroke:#181818;stroke-width:1;" x1="488.4663" x2="702.1328" y1="244.4922" y2="244.4922"/><text fill="#000000" font-family="Courier" font-size="13" lengthAdjust="spacing" textLength="195.6665" x="500.4663" y="239.4263">find(destinationUnLocode)</text></g><g class="message" data-participant-1="lr" data-participant-2="cf"><polygon fill="#181818" points="499.4663,269.625,489.4663,273.625,499.4663,277.625,495.4663,273.625" style="stroke:#181818;stroke-width:1;"/><line style="stroke:#181818;stroke-width:1;stroke-dasharray:2.0,2.0;" x1="493.4663" x2="712.1328" y1="273.625" y2="273.625"/><text fill="#000000" font-family="Courier" font-size="13" lengthAdjust="spacing" textLength="86.0933" x="557.7529" y="268.5591">destination</text></g><g class="message" data-participant-1="cf" data-participant-2="cr"><polygon fill="#181818" points="1412.7046,298.7578,1422.7046,302.7578,1412.7046,306.7578,1416.7046,302.7578" style="stroke:#181818;stroke-width:1;"/><line style="stroke:#181818;stroke-width:1;" x1="488.4663" x2="1418.7046" y1="302.7578" y2="302.7578"/><text fill="#000000" font-family="Courier" font-size="13" lengthAdjust="spacing" textLength="125.2266" x="893.9722" y="297.6919">nextTrackingId()</text></g><g class="message" data-participant-1="cr" data-participant-2="cf"><polygon fill="#181818" points="499.4663,327.8906,489.4663,331.8906,499.4663,335.8906,495.4663,331.8906" style="stroke:#181818;stroke-width:1;"/><line style="stroke:#181818;stroke-width:1;stroke-dasharray:2.0,2.0;" x1="493.4663" x2="1423.7046" y1="331.8906" y2="331.8906"/><text fill="#000000" font-family="Courier" font-size="13" lengthAdjust="spacing" textLength="78.2666" x="917.4521" y="326.8247">trackingId</text></g><g class="message" data-participant-1="cf" data-participant-2="rs"><polygon fill="#181818" points="821.3594,357.0234,831.3594,361.0234,821.3594,365.0234,825.3594,361.0234" style="stroke:#181818;stroke-width:1;"/><line style="stroke:#181818;stroke-width:1;" x1="488.4663" x2="827.3594" y1="361.0234" y2="361.0234"/><text fill="#000000" font-family="Courier" font-size="13" lengthAdjust="spacing" textLength="320.8931" x="500.4663" y="355.9575">new(origin,&#160;destination,&#160;arrivalDeadline)</text></g><rect fill="#FFB6C1" height="30.2969" rx="2.5" ry="2.5" style="stroke:#181818;stroke-width:0.5;" width="165.7168" x="833.3594" y="339.8906"/><text fill="#000000" font-family="Courier" font-size="14" lengthAdjust="spacing" textLength="151.7168" x="840.3594" y="359.8857">RouteSpecification</text><g class="message" data-participant-1="rs" data-participant-2="cf"><polygon fill="#181818" points="499.4663,383.1875,489.4663,387.1875,499.4663,391.1875,495.4663,387.1875" style="stroke:#181818;stroke-width:1;"/><line style="stroke:#181818;stroke-width:1;stroke-dasharray:2.0,2.0;" x1="493.4663" x2="915.2178" y1="387.1875" y2="387.1875"/></g><g class="message" data-participant-1="cf" data-participant-2="c"><polygon fill="#181818" points="997.0762,412.3203,1007.0762,416.3203,997.0762,420.3203,1001.0762,416.3203" style="stroke:#181818;stroke-width:1;"/><line style="stroke:#181818;stroke-width:1;" x1="488.4663" x2="1003.0762" y1="416.3203" y2="416.3203"/><text fill="#000000" font-family="Courier" font-size="13" lengthAdjust="spacing" textLength="273.9331" x="611.8047" y="411.2544">new(trackingId,&#160;routeSpecification)</text></g><rect fill="#FFB6C1" height="30.2969" rx="2.5" ry="2.5" style="stroke:#181818;stroke-width:0.5;" width="56.1436" x="1009.0762" y="395.1875"/><text fill="#000000" font-family="Courier" font-size="14" lengthAdjust="spacing" textLength="42.1436" x="1016.0762" y="415.1826">Cargo</text><g class="message" data-participant-1="c" data-participant-2="d"><polygon fill="#181818" points="1291.7744,468.75,1301.7744,472.75,1291.7744,476.75,1295.7744,472.75" style="stroke:#181818;stroke-width:1;"/><line style="stroke:#181818;stroke-width:1;" x1="1042.1479" x2="1297.7744" y1="472.75" y2="472.75"/><text fill="#000000" font-family="Courier" font-size="13" lengthAdjust="spacing" textLength="242.6265" x="1051.6479" y="452.5513">derivedFrom(routeSpecification,</text><text fill="#000000" font-family="Courier" font-size="13" lengthAdjust="spacing" textLength="219.1465" x="1063.3879" y="467.6841">null,&#160;HandlingHistory.EMPTY)</text></g><g class="message" data-participant-1="d" data-participant-2="c"><polygon fill="#181818" points="1053.1479,497.8828,1043.1479,501.8828,1053.1479,505.8828,1049.1479,501.8828" style="stroke:#181818;stroke-width:1;"/><line style="stroke:#181818;stroke-width:1;stroke-dasharray:2.0,2.0;" x1="1047.1479" x2="1307.7744" y1="501.8828" y2="501.8828"/><text fill="#000000" font-family="Courier" font-size="13" lengthAdjust="spacing" textLength="62.6133" x="1144.1545" y="496.8169">delivery</text></g><g class="message" data-participant-1="c" data-participant-2="cf"><polygon fill="#181818" points="499.4663,511.8828,489.4663,515.8828,499.4663,519.8828,495.4663,515.8828" style="stroke:#181818;stroke-width:1;"/><line style="stroke:#181818;stroke-width:1;stroke-dasharray:2.0,2.0;" x1="493.4663" x2="1036.1479" y1="515.8828" y2="515.8828"/></g><g class="message" data-participant-1="cf" data-participant-2="bs"><polygon fill="#181818" points="259.1465,541.0156,249.1465,545.0156,259.1465,549.0156,255.1465,545.0156" style="stroke:#181818;stroke-width:1;"/><line style="stroke:#181818;stroke-width:1;stroke-dasharray:2.0,2.0;" x1="253.1465" x2="482.4663" y1="545.0156" y2="545.0156"/><text fill="#000000" font-family="Courier" font-size="13" lengthAdjust="spacing" textLength="39.1333" x="346.2397" y="539.9497">cargo</text></g><g class="message" data-participant-1="bs" data-participant-2="cr"><polygon fill="#181818" points="1412.7046,570.1484,1422.7046,574.1484,1412.7046,578.1484,1416.7046,574.1484" style="stroke:#181818;stroke-width:1;"/><line style="stroke:#181818;stroke-width:1;" x1="248.1465" x2="1418.7046" y1="574.1484" y2="574.1484"/><text fill="#000000" font-family="Courier" font-size="13" lengthAdjust="spacing" textLength="93.9199" x="789.4656" y="569.0825">store(cargo)</text></g><g class="message" data-participant-1="cr" data-participant-2="bs"><polygon fill="#181818" points="259.1465,584.1484,249.1465,588.1484,259.1465,592.1484,255.1465,588.1484" style="stroke:#181818;stroke-width:1;"/><line style="stroke:#181818;stroke-width:1;stroke-dasharray:2.0,2.0;" x1="253.1465" x2="1428.7046" y1="588.1484" y2="588.1484"/></g><g class="message" data-participant-1="bs" data-participant-2="bs"><polygon fill="#181818" points="11,613.2813,1,617.2813,11,621.2813,7,617.2813" style="stroke:#181818;stroke-width:1;"/><line style="stroke:#181818;stroke-width:1;stroke-dasharray:2.0,2.0;" x1="5" x2="242.1465" y1="617.2813" y2="617.2813"/><text fill="#000000" font-family="Courier" font-size="13" lengthAdjust="spacing" textLength="78.2666" x="82.4399" y="612.2153">trackingId</text></g><!--SRC=[hLJDJkCm4BxdAIouj5BA0rHe9HQs0WdG2jZ3YhsuzYICSCV1TWgyFMCdBNPBzyJHzlStFub_HkgaaoknicJLaxCh48qq7Yg_VTBGoDw4XQLmA_dztFOEmMK83oyza88Ry5wsS6Qm9Q600gCgXWHKs4aAukYdjSngxy6jKS7LgZD7GdgnzEAOIK-XTG1KKiwbQ-r2gc3TUmAhPWHtICybzjeg6T3I7NJMuvPXtCXOcXvAnftj0znteB31WPiOpX_qI7c680Sn5s1m3QEx_h_KJbPLPAqUPp-uEtEnvCRTmcjYJAp35kaFSRbMG_sFDFY0bE9djz8vN4jp0L8R99XMt4I-2B3RxuhFxAEQETi30xx9ffnKnKTsCMuk6YIz8v_Hod7nQJQ66nXxGb_4ckQqxBtIaDbib1Gh4Ro51oTLNCyhFSchAEAeJzsmXRDGwXllpIZfV9Hy7OkiymorEDonSk_uD7ZbiTbYuwOs-GUlpporS7jxdLTKZYLAwDWcJWLwmJ-1oJwT1qszCRMub1HJjvVeuzAU_Bhv_V0t4o_MNGy5HF7XYyWhqSbxhq0rZ6LSV1LNiNXkjllAOuiPO990qyribhx0yvWVJsUpf9QDB8CmuGC0]--></g></svg>