<svg xmlns="http://www.w3.org/2000/svg" xmlns:xlink="http://www.w3.org/1999/xlink" contentStyleType="text/css" data-diagram-type="SEQUENCE" height="964px" preserveAspectRatio="none" style="width:1630px;height:964px;background:#FFFFFF;" version="1.1" viewBox="0 0 1630 964" width="1630px" zoomAndPan="magnify"><defs/><g><g><title>CargoInspectionServiceImpl</title><rect fill="#90EE90" height="843.4531" style="stroke:#181818;stroke-width:1;" width="10" x="206.8398" y="67.4297"/></g><g><title>CargoRepositoryJPA</title><rect fill="#ADD8E6" height="800.3203" style="stroke:#181818;stroke-width:1;" width="10" x="416.2715" y="96.5625"/></g><g><title>HandlingEventRepositoryJPA</title><rect fill="#ADD8E6" height="29.1328" style="stroke:#181818;stroke-width:1;" width="10" x="625.7031" y="125.6953"/></g><g><title>Cargo</title><rect fill="#FFB6C1" height="346.4609" style="stroke:#181818;stroke-width:1;" width="10" x="780.3481" y="183.9609"/></g><g><title>Cargo</title><rect fill="#FFB6C1" height="29.1328" style="stroke:#181818;stroke-width:1;" width="10" x="780.3481" y="559.5547"/></g><g><title>HandlingHistory</title><rect fill="#FFB6C1" height="29.1328" style="stroke:#181818;stroke-width:1;" width="10" x="1005.0146" y="413.8906"/></g><g><title>RouteSpecification</title><rect fill="#FFB6C1" height="29.1328" style="stroke:#181818;stroke-width:1;" width="10" x="1168.0884" y="255.2266"/></g><g><title>Itinerary</title><rect fill="#FFB6C1" height="29.1328" style="stroke:#181818;stroke-width:1;" width="10" x="1305.876" y="355.625"/></g><g><title>Delivery</title><rect fill="#FFB6C1" height="29.1328" style="stroke:#181818;stroke-width:1;" width="10" x="1401.52" y="487.2891"/></g><g><title>Delivery</title><rect fill="#FFB6C1" height="29.1328" style="stroke:#181818;stroke-width:1;" width="10" x="1401.52" y="617.8203"/></g><g><title>Delivery</title><rect fill="#FFB6C1" height="29.1328" style="stroke:#181818;stroke-width:1;" width="10" x="1401.52" y="750.3516"/></g><g><title>ApplicationEvents</title><rect fill="#90EE90" height="14" style="stroke:#181818;stroke-width:1;" width="10" x="1530.8789" y="700.2188"/></g><g><title>ApplicationEvents</title><rect fill="#90EE90" height="14" style="stroke:#181818;stroke-width:1;" width="10" x="1530.8789" y="832.75"/></g><rect fill="none" height="60.2656" style="stroke:#000000;stroke-width:1.5;" width="1539.2563" x="85.2666" y="661.9531"/><rect fill="none" height="60.2656" style="stroke:#000000;stroke-width:1.5;" width="1539.2563" x="85.2666" y="794.4844"/><g><title>CargoInspectionServiceImpl</title><rect fill="#000000" fill-opacity="0.00000" height="892.5859" width="8" x="207.8398" y="36.2969"/><line style="stroke:#181818;stroke-width:0.5;stroke-dasharray:5.0,5.0;" x1="211.2666" x2="211.2666" y1="36.2969" y2="928.8828"/></g><g><title>CargoRepositoryJPA</title><rect fill="#000000" fill-opacity="0.00000" height="892.5859" width="8" x="417.2715" y="36.2969"/><line style="stroke:#181818;stroke-width:0.5;stroke-dasharray:5.0,5.0;" x1="420.4131" x2="420.4131" y1="36.2969" y2="928.8828"/></g><g><title>HandlingEventRepositoryJPA</title><rect fill="#000000" fill-opacity="0.00000" height="892.5859" width="8" x="626.7031" y="36.2969"/><line style="stroke:#181818;stroke-width:0.5;stroke-dasharray:5.0,5.0;" x1="630.1299" x2="630.1299" y1="36.2969" y2="928.8828"/></g><g><title>Cargo</title><rect fill="#000000" fill-opacity="0.00000" height="892.5859" width="8" x="781.3481" y="36.2969"/><line style="stroke:#181818;stroke-width:0.5;stroke-dasharray:5.0,5.0;" x1="785.2764" x2="785.2764" y1="36.2969" y2="928.8828"/></g><g><title>HandlingHistory</title><rect fill="#000000" fill-opacity="0.00000" height="892.5859" width="8" x="1006.0146" y="36.2969"/><line style="stroke:#181818;stroke-width:0.5;stroke-dasharray:5.0,5.0;" x1="1009.7993" x2="1009.7993" y1="36.2969" y2="928.8828"/></g><g><title>RouteSpecification</title><rect fill="#000000" fill-opacity="0.00000" height="892.5859" width="8" x="1169.0884" y="36.2969"/><line style="stroke:#181818;stroke-width:0.5;stroke-dasharray:5.0,5.0;" x1="1172.23" x2="1172.23" y1="36.2969" y2="928.8828"/></g><g><title>Itinerary</title><rect fill="#000000" fill-opacity="0.00000" height="892.5859" width="8" x="1306.876" y="36.2969"/><line style="stroke:#181818;stroke-width:0.5;stroke-dasharray:5.0,5.0;" x1="1309.9468" x2="1309.9468" y1="36.2969" y2="928.8828"/></g><g><title>Delivery</title><rect fill="#000000" fill-opacity="0.00000" height="892.5859" width="8" x="1402.52" y="36.2969"/><line style="stroke:#181818;stroke-width:0.5;stroke-dasharray:5.0,5.0;" x1="1405.8052" x2="1405.8052" y1="36.2969" y2="928.8828"/></g><g><title>ApplicationEvents</title><rect fill="#000000" fill-opacity="0.00000" height="892.5859" width="8" x="1531.8789" y="36.2969"/><line style="stroke:#181818;stroke-width:0.5;stroke-dasharray:5.0,5.0;" x1="1535.2349" x2="1535.2349" y1="36.2969" y2="928.8828"/></g><g class="participant participant-head" data-participant="cis"><rect fill="#90EE90" height="30.2969" rx="2.5" ry="2.5" style="stroke:#181818;stroke-width:0.5;" width="233.1465" x="95.2666" y="5"/><text fill="#000000" font-family="Courier" font-size="14" lengthAdjust="spacing" textLength="219.1465" x="102.2666" y="24.9951">CargoInspectionServiceImpl</text></g><g class="participant participant-tail" data-participant="cis"><rect fill="#90EE90" height="30.2969" rx="2.5" ry="2.5" style="stroke:#181818;stroke-width:0.5;" width="233.1465" x="95.2666" y="927.8828"/><text fill="#000000" font-family="Courier" font-size="14" lengthAdjust="spacing" textLength="219.1465" x="102.2666" y="947.8779">CargoInspectionServiceImpl</text></g><g class="participant participant-head" data-participant="cr"><rect fill="#ADD8E6" height="30.2969" rx="2.5" ry="2.5" style="stroke:#181818;stroke-width:0.5;" width="165.7168" x="338.4131" y="5"/><text fill="#000000" font-family="Courier" font-size="14" lengthAdjust="spacing" textLength="151.7168" x="345.4131" y="24.9951">CargoRepositoryJPA</text></g><g class="participant participant-tail" data-participant="cr"><rect fill="#ADD8E6" height="30.2969" rx="2.5" ry="2.5" style="stroke:#181818;stroke-width:0.5;" width="165.7168" x="338.4131" y="927.8828"/><text fill="#000000" font-family="Courier" font-size="14" lengthAdjust="spacing" textLength="151.7168" x="345.4131" y="947.8779">CargoRepositoryJPA</text></g><g class="participant participant-head" data-participant="her"><rect fill="#ADD8E6" height="30.2969" rx="2.5" ry="2.5" style="stroke:#181818;stroke-width:0.5;" width="233.1465" x="514.1299" y="5"/><text fill="#000000" font-family="Courier" font-size="14" lengthAdjust="spacing" textLength="219.1465" x="521.1299" y="24.9951">HandlingEventRepositoryJPA</text></g><g class="participant participant-tail" data-participant="her"><rect fill="#ADD8E6" height="30.2969" rx="2.5" ry="2.5" style="stroke:#181818;stroke-width:0.5;" width="233.1465" x="514.1299" y="927.8828"/><text fill="#000000" font-family="Courier" font-size="14" lengthAdjust="spacing" textLength="219.1465" x="521.1299" y="947.8779">HandlingEventRepositoryJPA</text></g><g class="participant participant-head" data-participant="c"><rect fill="#FFB6C1" height="30.2969" rx="2.5" ry="2.5" style="stroke:#181818;stroke-width:0.5;" width="56.1436" x="757.2764" y="5"/><text fill="#000000" font-family="Courier" font-size="14" lengthAdjust="spacing" textLength="42.1436" x="764.2764" y="24.9951">Cargo</text></g><g class="participant participant-tail" data-participant="c"><rect fill="#FFB6C1" height="30.2969" rx="2.5" ry="2.5" style="stroke:#181818;stroke-width:0.5;" width="56.1436" x="757.2764" y="927.8828"/><text fill="#000000" font-family="Courier" font-size="14" lengthAdjust="spacing" textLength="42.1436" x="764.2764" y="947.8779">Cargo</text></g><g class="participant participant-head" data-participant="hh"><rect fill="#FFB6C1" height="30.2969" rx="2.5" ry="2.5" style="stroke:#181818;stroke-width:0.5;" width="140.4307" x="939.7993" y="5"/><text fill="#000000" font-family="Courier" font-size="14" lengthAdjust="spacing" textLength="126.4307" x="946.7993" y="24.9951">HandlingHistory</text></g><g class="participant participant-tail" data-participant="hh"><rect fill="#FFB6C1" height="30.2969" rx="2.5" ry="2.5" style="stroke:#181818;stroke-width:0.5;" width="140.4307" x="939.7993" y="927.8828"/><text fill="#000000" font-family="Courier" font-size="14" lengthAdjust="spacing" textLength="126.4307" x="946.7993" y="947.8779">HandlingHistory</text></g><g class="participant participant-head" data-participant="rs"><rect fill="#FFB6C1" height="30.2969" rx="2.5" ry="2.5" style="stroke:#181818;stroke-width:0.5;" width="165.7168" x="1090.23" y="5"/><text fill="#000000" font-family="Courier" font-size="14" lengthAdjust="spacing" textLength="151.7168" x="1097.23" y="24.9951">RouteSpecification</text></g><g class="participant participant-tail" data-participant="rs"><rect fill="#FFB6C1" height="30.2969" rx="2.5" ry="2.5" style="stroke:#181818;stroke-width:0.5;" width="165.7168" x="1090.23" y="927.8828"/><text fill="#000000" font-family="Courier" font-size="14" lengthAdjust="spacing" textLength="151.7168" x="1097.23" y="947.8779">RouteSpecification</text></g><g class="participant participant-head" data-participant="i"><rect fill="#FFB6C1" height="30.2969" rx="2.5" ry="2.5" style="stroke:#181818;stroke-width:0.5;" width="89.8584" x="1265.9468" y="5"/><text fill="#000000" font-family="Courier" font-size="14" lengthAdjust="spacing" textLength="75.8584" x="1272.9468" y="24.9951">Itinerary</text></g><g class="participant participant-tail" data-participant="i"><rect fill="#FFB6C1" height="30.2969" rx="2.5" ry="2.5" style="stroke:#181818;stroke-width:0.5;" width="89.8584" x="1265.9468" y="927.8828"/><text fill="#000000" font-family="Courier" font-size="14" lengthAdjust="spacing" textLength="75.8584" x="1272.9468" y="947.8779">Itinerary</text></g><g class="participant participant-head" data-participant="d"><rect fill="#FFB6C1" height="30.2969" rx="2.5" ry="2.5" style="stroke:#181818;stroke-width:0.5;" width="81.4297" x="1365.8052" y="5"/><text fill="#000000" font-family="Courier" font-size="14" lengthAdjust="spacing" textLength="67.4297" x="1372.8052" y="24.9951">Delivery</text></g><g class="participant participant-tail" data-participant="d"><rect fill="#FFB6C1" height="30.2969" rx="2.5" ry="2.5" style="stroke:#181818;stroke-width:0.5;" width="81.4297" x="1365.8052" y="927.8828"/><text fill="#000000" font-family="Courier" font-size="14" lengthAdjust="spacing" textLength="67.4297" x="1372.8052" y="947.8779">Delivery</text></g><g class="participant participant-head" data-participant="ae"><rect fill="#90EE90" height="30.2969" rx="2.5" ry="2.5" style="stroke:#181818;stroke-width:0.5;" width="157.2881" x="1457.2349" y="5"/><text fill="#000000" font-family="Courier" font-size="14" lengthAdjust="spacing" textLength="143.2881" x="1464.2349" y="24.9951">ApplicationEvents</text></g><g class="participant participant-tail" data-participant="ae"><rect fill="#90EE90" height="30.2969" rx="2.5" ry="2.5" style="stroke:#181818;stroke-width:0.5;" width="157.2881" x="1457.2349" y="927.8828"/><text fill="#000000" font-family="Courier" font-size="14" lengthAdjust="spacing" textLength="143.2881" x="1464.2349" y="947.8779">ApplicationEvents</text></g><g><title>CargoInspectionServiceImpl</title><rect fill="#90EE90" height="843.4531" style="stroke:#181818;stroke-width:1;" width="10" x="206.8398" y="67.4297"/></g><g><title>CargoRepositoryJPA</title><rect fill="#ADD8E6" height="800.3203" style="stroke:#181818;stroke-width:1;" width="10" x="416.2715" y="96.5625"/></g><g><title>HandlingEventRepositoryJPA</title><rect fill="#ADD8E6" height="29.1328" style="stroke:#181818;stroke-width:1;" width="10" x="625.7031" y="125.6953"/></g><g><title>Cargo</title><rect fill="#FFB6C1" height="346.4609" style="stroke:#181818;stroke-width:1;" width="10" x="780.3481" y="183.9609"/></g><g><title>Cargo</title><rect fill="#FFB6C1" height="29.1328" style="stroke:#181818;stroke-width:1;" width="10" x="780.3481" y="559.5547"/></g><g><title>HandlingHistory</title><rect fill="#FFB6C1" height="29.1328" style="stroke:#181818;stroke-width:1;" width="10" x="1005.0146" y="413.8906"/></g><g><title>RouteSpecification</title><rect fill="#FFB6C1" height="29.1328" style="stroke:#181818;stroke-width:1;" width="10" x="1168.0884" y="255.2266"/></g><g><title>Itinerary</title><rect fill="#FFB6C1" height="29.1328" style="stroke:#181818;stroke-width:1;" width="10" x="1305.876" y="355.625"/></g><g><title>Delivery</title><rect fill="#FFB6C1" height="29.1328" style="stroke:#181818;stroke-width:1;" width="10" x="1401.52" y="487.2891"/></g><g><title>Delivery</title><rect fill="#FFB6C1" height="29.1328" style="stroke:#181818;stroke-width:1;" width="10" x="1401.52" y="617.8203"/></g><g><title>Delivery</title><rect fill="#FFB6C1" height="29.1328" style="stroke:#181818;stroke-width:1;" width="10" x="1401.52" y="750.3516"/></g><g><title>ApplicationEvents</title><rect fill="#90EE90" height="14" style="stroke:#181818;stroke-width:1;" width="10" x="1530.8789" y="700.2188"/></g><g><title>ApplicationEvents</title><rect fill="#90EE90" height="14" style="stroke:#181818;stroke-width:1;" width="10" x="1530.8789" y="832.75"/></g><g class="message" data-participant-1="cis" data-participant-2="cis"><polygon fill="#181818" points="194.8398,63.4297,204.8398,67.4297,194.8398,71.4297,198.8398,67.4297" style="stroke:#181818;stroke-width:1;"/><line style="stroke:#181818;stroke-width:1;" x1="0" x2="200.8398" y1="67.4297" y2="67.4297"/><text fill="#000000" font-family="Courier" font-size="13" lengthAdjust="spacing" textLength="187.8398" x="9.5" y="62.3638">inspectCargo(trackingId)</text></g><g class="message" data-participant-1="cis" data-participant-2="cr"><polygon fill="#181818" points="404.2715,92.5625,414.2715,96.5625,404.2715,100.5625,408.2715,96.5625" style="stroke:#181818;stroke-width:1;"/><line style="stroke:#181818;stroke-width:1;" x1="216.8398" x2="410.2715" y1="96.5625" y2="96.5625"/><text fill="#000000" font-family="Courier" font-size="13" lengthAdjust="spacing" textLength="125.2266" x="253.9424" y="91.4966">find(trackingId)</text></g><g class="message" data-participant-1="cis" data-participant-2="her"><polygon fill="#181818" points="613.7031,121.6953,623.7031,125.6953,613.7031,129.6953,617.7031,125.6953" style="stroke:#181818;stroke-width:1;"/><line style="stroke:#181818;stroke-width:1;" x1="216.8398" x2="619.7031" y1="125.6953" y2="125.6953"/><text fill="#000000" font-family="Courier" font-size="13" lengthAdjust="spacing" textLength="313.0664" x="264.7383" y="120.6294">lookupHandlingHistoryOfCargo(trackingId)</text></g><g class="message" data-participant-1="her" data-participant-2="cis"><polygon fill="#181818" points="227.8398,150.8281,217.8398,154.8281,227.8398,158.8281,223.8398,154.8281" style="stroke:#181818;stroke-width:1;"/><line style="stroke:#181818;stroke-width:1;stroke-dasharray:2.0,2.0;" x1="221.8398" x2="629.7031" y1="154.8281" y2="154.8281"/><text fill="#000000" font-family="Courier" font-size="13" lengthAdjust="spacing" textLength="117.3999" x="365.0715" y="149.7622">handlingHistory</text></g><g class="message" data-participant-1="cis" data-participant-2="c"><polygon fill="#181818" points="768.3481,179.9609,778.3481,183.9609,768.3481,187.9609,772.3481,183.9609" style="stroke:#181818;stroke-width:1;"/><line style="stroke:#181818;stroke-width:1;" x1="216.8398" x2="774.3481" y1="183.9609" y2="183.9609"/><text fill="#000000" font-family="Courier" font-size="13" lengthAdjust="spacing" textLength="305.2397" x="345.9741" y="178.895">deriveDeliveryProgress(handlingHistory)</text></g><g class="message" data-participant-1="c" data-participant-2="c"><line style="stroke:#181818;stroke-width:1;" x1="790.3481" x2="832.3481" y1="213.0938" y2="213.0938"/><line style="stroke:#181818;stroke-width:1;" x1="832.3481" x2="832.3481" y1="213.0938" y2="226.0938"/><line style="stroke:#181818;stroke-width:1;" x1="791.3481" x2="832.3481" y1="226.0938" y2="226.0938"/><polygon fill="#181818" points="801.3481,222.0938,791.3481,226.0938,801.3481,230.0938,797.3481,226.0938" style="stroke:#181818;stroke-width:1;"/><text fill="#000000" font-family="Courier" font-size="13" lengthAdjust="spacing" textLength="156.5332" x="797.3481" y="208.0278">routeSpecification()</text></g><g class="message" data-participant-1="c" data-participant-2="rs"><polygon fill="#181818" points="1156.0884,251.2266,1166.0884,255.2266,1156.0884,259.2266,1160.0884,255.2266" style="stroke:#181818;stroke-width:1;"/><line style="stroke:#181818;stroke-width:1;" x1="790.3481" x2="1162.0884" y1="255.2266" y2="255.2266"/><text fill="#000000" font-family="Courier" font-size="13" lengthAdjust="spacing" textLength="187.8398" x="885.2983" y="250.1606">isSatisfiedBy(itinerary)</text></g><g class="message" data-participant-1="rs" data-participant-2="c"><polygon fill="#181818" points="801.3481,280.3594,791.3481,284.3594,801.3481,288.3594,797.3481,284.3594" style="stroke:#181818;stroke-width:1;"/><line style="stroke:#181818;stroke-width:1;stroke-dasharray:2.0,2.0;" x1="795.3481" x2="1172.0884" y1="284.3594" y2="284.3594"/><text fill="#000000" font-family="Courier" font-size="13" lengthAdjust="spacing" textLength="70.4399" x="946.4983" y="279.2935">satisfied</text></g><g class="message" data-participant-1="c" data-participant-2="c"><line style="stroke:#181818;stroke-width:1;" x1="790.3481" x2="832.3481" y1="313.4922" y2="313.4922"/><line style="stroke:#181818;stroke-width:1;" x1="832.3481" x2="832.3481" y1="313.4922" y2="326.4922"/><line style="stroke:#181818;stroke-width:1;" x1="791.3481" x2="832.3481" y1="326.4922" y2="326.4922"/><polygon fill="#181818" points="801.3481,322.4922,791.3481,326.4922,801.3481,330.4922,797.3481,326.4922" style="stroke:#181818;stroke-width:1;"/><text fill="#000000" font-family="Courier" font-size="13" lengthAdjust="spacing" textLength="86.0933" x="797.3481" y="308.4263">itinerary()</text></g><g class="message" data-participant-1="c" data-participant-2="i"><polygon fill="#181818" points="1293.876,351.625,1303.876,355.625,1293.876,359.625,1297.876,355.625" style="stroke:#181818;stroke-width:1;"/><line style="stroke:#181818;stroke-width:1;" x1="790.3481" x2="1299.876" y1="355.625" y2="355.625"/><text fill="#000000" font-family="Courier" font-size="13" lengthAdjust="spacing" textLength="46.96" x="1024.6321" y="350.5591">legs()</text></g><g class="message" data-participant-1="i" data-participant-2="c"><polygon fill="#181818" points="801.3481,380.7578,791.3481,384.7578,801.3481,388.7578,797.3481,384.7578" style="stroke:#181818;stroke-width:1;"/><line style="stroke:#181818;stroke-width:1;stroke-dasharray:2.0,2.0;" x1="795.3481" x2="1309.876" y1="384.7578" y2="384.7578"/><text fill="#000000" font-family="Courier" font-size="13" lengthAdjust="spacing" textLength="31.3066" x="1034.9587" y="379.6919">legs</text></g><g class="message" data-participant-1="c" data-participant-2="hh"><polygon fill="#181818" points="993.0146,409.8906,1003.0146,413.8906,993.0146,417.8906,997.0146,413.8906" style="stroke:#181818;stroke-width:1;"/><line style="stroke:#181818;stroke-width:1;" x1="790.3481" x2="999.0146" y1="413.8906" y2="413.8906"/><text fill="#000000" font-family="Courier" font-size="13" lengthAdjust="spacing" textLength="195.6665" x="799.8481" y="408.8247">filterOnCargo(trackingId)</text></g><g class="message" data-participant-1="hh" data-participant-2="c"><polygon fill="#181818" points="801.3481,439.0234,791.3481,443.0234,801.3481,447.0234,797.3481,443.0234" style="stroke:#181818;stroke-width:1;"/><line style="stroke:#181818;stroke-width:1;stroke-dasharray:2.0,2.0;" x1="795.3481" x2="1009.0146" y1="443.0234" y2="443.0234"/><text fill="#000000" font-family="Courier" font-size="13" lengthAdjust="spacing" textLength="117.3999" x="841.4814" y="437.9575">filteredHistory</text></g><g class="message" data-participant-1="c" data-participant-2="d"><polygon fill="#181818" points="1389.52,483.2891,1399.52,487.2891,1389.52,491.2891,1393.52,487.2891" style="stroke:#181818;stroke-width:1;"/><line style="stroke:#181818;stroke-width:1;" x1="790.3481" x2="1395.52" y1="487.2891" y2="487.2891"/><text fill="#000000" font-family="Courier" font-size="13" lengthAdjust="spacing" textLength="242.6265" x="974.6208" y="467.0903">derivedFrom(routeSpecification,</text><text fill="#000000" font-family="Courier" font-size="13" lengthAdjust="spacing" textLength="211.3198" x="990.2742" y="482.2231">itinerary,&#160;filteredHistory)</text></g><g class="message" data-participant-1="d" data-participant-2="c"><polygon fill="#181818" points="801.3481,512.4219,791.3481,516.4219,801.3481,520.4219,797.3481,516.4219" style="stroke:#181818;stroke-width:1;"/><line style="stroke:#181818;stroke-width:1;stroke-dasharray:2.0,2.0;" x1="795.3481" x2="1405.52" y1="516.4219" y2="516.4219"/><text fill="#000000" font-family="Courier" font-size="13" lengthAdjust="spacing" textLength="62.6133" x="1067.1274" y="511.356">delivery</text></g><g class="message" data-participant-1="c" data-participant-2="cis"><polygon fill="#181818" points="227.8398,526.4219,217.8398,530.4219,227.8398,534.4219,223.8398,530.4219" style="stroke:#181818;stroke-width:1;"/><line style="stroke:#181818;stroke-width:1;stroke-dasharray:2.0,2.0;" x1="221.8398" x2="784.3481" y1="530.4219" y2="530.4219"/></g><g class="message" data-participant-1="cis" data-participant-2="c"><polygon fill="#181818" points="768.3481,555.5547,778.3481,559.5547,768.3481,563.5547,772.3481,559.5547" style="stroke:#181818;stroke-width:1;"/><line style="stroke:#181818;stroke-width:1;" x1="216.8398" x2="774.3481" y1="559.5547" y2="559.5547"/><text fill="#000000" font-family="Courier" font-size="13" lengthAdjust="spacing" textLength="78.2666" x="459.4607" y="554.4888">delivery()</text></g><g class="message" data-participant-1="c" data-participant-2="cis"><polygon fill="#181818" points="227.8398,584.6875,217.8398,588.6875,227.8398,592.6875,223.8398,588.6875" style="stroke:#181818;stroke-width:1;"/><line style="stroke:#181818;stroke-width:1;stroke-dasharray:2.0,2.0;" x1="221.8398" x2="784.3481" y1="588.6875" y2="588.6875"/><text fill="#000000" font-family="Courier" font-size="13" lengthAdjust="spacing" textLength="62.6133" x="469.7874" y="583.6216">delivery</text></g><g class="message" data-participant-1="cis" data-participant-2="d"><polygon fill="#181818" points="1389.52,613.8203,1399.52,617.8203,1389.52,621.8203,1393.52,617.8203" style="stroke:#181818;stroke-width:1;"/><line style="stroke:#181818;stroke-width:1;" x1="216.8398" x2="1395.52" y1="617.8203" y2="617.8203"/><text fill="#000000" font-family="Courier" font-size="13" lengthAdjust="spacing" textLength="117.3999" x="750.48" y="612.7544">isMisdirected()</text></g><g class="message" data-participant-1="d" data-participant-2="cis"><polygon fill="#181818" points="227.8398,642.9531,217.8398,646.9531,227.8398,650.9531,223.8398,646.9531" style="stroke:#181818;stroke-width:1;"/><line style="stroke:#181818;stroke-width:1;stroke-dasharray:2.0,2.0;" x1="221.8398" x2="1405.52" y1="646.9531" y2="646.9531"/><text fill="#000000" font-family="Courier" font-size="13" lengthAdjust="spacing" textLength="86.0933" x="768.6333" y="641.8872">misdirected</text></g><path d="M85.2666,661.9531 L153.7466,661.9531 L153.7466,669.0859 L143.7466,679.0859 L85.2666,679.0859 L85.2666,661.9531" fill="#EEEEEE" style="stroke:#000000;stroke-width:1.5;"/><rect fill="none" height="60.2656" style="stroke:#000000;stroke-width:1.5;" width="1539.2563" x="85.2666" y="661.9531"/><text fill="#000000" font-family="Courier" font-size="13" font-weight="bold" lengthAdjust="spacing" textLength="23.48" x="100.2666" y="675.02">alt</text><text fill="#000000" font-family="Courier" font-size="11" font-weight="bold" lengthAdjust="spacing" textLength="86.0933" x="168.7466" y="674.1636">[misdirected]</text><g class="message" data-participant-1="cis" data-participant-2="ae"><polygon fill="#181818" points="1518.8789,696.2188,1528.8789,700.2188,1518.8789,704.2188,1522.8789,700.2188" style="stroke:#181818;stroke-width:1;"/><line style="stroke:#181818;stroke-width:1;" x1="216.8398" x2="1524.8789" y1="700.2188" y2="700.2188"/><text fill="#000000" font-family="Courier" font-size="13" lengthAdjust="spacing" textLength="203.4932" x="772.1128" y="695.1528">cargoWasMisdirected(cargo)</text></g><g class="message" data-participant-1="ae" data-participant-2="cis"><polygon fill="#181818" points="227.8398,710.2188,217.8398,714.2188,227.8398,718.2188,223.8398,714.2188" style="stroke:#181818;stroke-width:1;"/><line style="stroke:#181818;stroke-width:1;stroke-dasharray:2.0,2.0;" x1="221.8398" x2="1534.8789" y1="714.2188" y2="714.2188"/></g><g class="message" data-participant-1="cis" data-participant-2="d"><polygon fill="#181818" points="1389.52,746.3516,1399.52,750.3516,1389.52,754.3516,1393.52,750.3516" style="stroke:#181818;stroke-width:1;"/><line style="stroke:#181818;stroke-width:1;" x1="216.8398" x2="1395.52" y1="750.3516" y2="750.3516"/><text fill="#000000" font-family="Courier" font-size="13" lengthAdjust="spacing" textLength="195.6665" x="711.3467" y="745.2856">isUnloadedAtDestination()</text></g><g class="message" data-participant-1="d" data-participant-2="cis"><polygon fill="#181818" points="227.8398,775.4844,217.8398,779.4844,227.8398,783.4844,223.8398,779.4844" style="stroke:#181818;stroke-width:1;"/><line style="stroke:#181818;stroke-width:1;stroke-dasharray:2.0,2.0;" x1="221.8398" x2="1405.52" y1="779.4844" y2="779.4844"/><text fill="#000000" font-family="Courier" font-size="13" lengthAdjust="spacing" textLength="101.7466" x="760.8066" y="774.4185">atDestination</text></g><path d="M85.2666,794.4844 L153.7466,794.4844 L153.7466,801.6172 L143.7466,811.6172 L85.2666,811.6172 L85.2666,794.4844" fill="#EEEEEE" style="stroke:#000000;stroke-width:1.5;"/><rect fill="none" height="60.2656" style="stroke:#000000;stroke-width:1.5;" width="1539.2563" x="85.2666" y="794.4844"/><text fill="#000000" font-family="Courier" font-size="13" font-weight="bold" lengthAdjust="spacing" textLength="23.48" x="100.2666" y="807.5513">alt</text><text fill="#000000" font-family="Courier" font-size="11" font-weight="bold" lengthAdjust="spacing" textLength="99.3384" x="168.7466" y="806.6948">[atDestination]</text><g class="message" data-participant-1="cis" data-participant-2="ae"><polygon fill="#181818" points="1518.8789,828.75,1528.8789,832.75,1518.8789,836.75,1522.8789,832.75" style="stroke:#181818;stroke-width:1;"/><line style="stroke:#181818;stroke-width:1;" x1="216.8398" x2="1524.8789" y1="832.75" y2="832.75"/><text fill="#000000" font-family="Courier" font-size="13" lengthAdjust="spacing" textLength="172.1865" x="787.7661" y="827.6841">cargoHasArrived(cargo)</text></g><g class="message" data-participant-1="ae" data-participant-2="cis"><polygon fill="#181818" points="227.8398,842.75,217.8398,846.75,227.8398,850.75,223.8398,846.75" style="stroke:#181818;stroke-width:1;"/><line style="stroke:#181818;stroke-width:1;stroke-dasharray:2.0,2.0;" x1="221.8398" x2="1534.8789" y1="846.75" y2="846.75"/></g><g class="message" data-participant-1="cis" data-participant-2="cr"><polygon fill="#181818" points="404.2715,878.8828,414.2715,882.8828,404.2715,886.8828,408.2715,882.8828" style="stroke:#181818;stroke-width:1;"/><line style="stroke:#181818;stroke-width:1;" x1="216.8398" x2="410.2715" y1="882.8828" y2="882.8828"/><text fill="#000000" font-family="Courier" font-size="13" lengthAdjust="spacing" textLength="93.9199" x="269.5957" y="877.8169">store(cargo)</text></g><g class="message" data-participant-1="cr" data-participant-2="cis"><polygon fill="#181818" points="227.8398,892.8828,217.8398,896.8828,227.8398,900.8828,223.8398,896.8828" style="stroke:#181818;stroke-width:1;"/><line style="stroke:#181818;stroke-width:1;stroke-dasharray:2.0,2.0;" x1="221.8398" x2="420.2715" y1="896.8828" y2="896.8828"/></g><g class="message" data-participant-1="cis" data-participant-2="cis"><polygon fill="#181818" points="11,906.8828,1,910.8828,11,914.8828,7,910.8828" style="stroke:#181818;stroke-width:1;"/><line style="stroke:#181818;stroke-width:1;stroke-dasharray:2.0,2.0;" x1="5" x2="210.8398" y1="910.8828" y2="910.8828"/></g><!--SRC=[hLJBRjim4BphAuZq8WFn3nX50JTfO1T84yGeUaWlBBcI5gP9bQGCvE-xrCCczKWkrOtSdTdTcQNS4NNDBJ-naz56LDQSW1LSESZS9IIXu8to3qRx7vpYTwQn23RASF2t0ItW4PpZ9MmLbfe9q9woCahnAB3cshEREsvBizUk1k7Hw0FOCmhOdsfrmxXZ0XtxHEZAbnP0ps1Ve3OElR5ltv-t7SRsa3-gWHInuregrEMtC_KoHLQm36sBTVnzJetwE4-_GnTeEyvgCVt5D1uED3aMA7WOlqLOjuZOUzHWUK-DYtdteF0CVPfSJDlMjUehjuguDfz38ddskluIVDWmx6ngbSYzvOByBlTobN7oximzJEpAmaM0smqhKCi5LABwW24pDamPSspgaQvFnJijZ3mCn_KmG9NoP19YsBNR3Qsu9G476P-jeNcSoqS4yGono9deQUp4uNpL1MtGqntepXK8ykjRZeEt4Mkw2dHQTxnkmCKZM7SjV24RwY5f2QNB8_9aVN2W3banA_QaLHKiLFI2d_HxyYVhJgUUjeE2d9E-wal8GNVvGF-TV2hUxMzz6UnsJ1araMoy75gGlPjnRTcMxlOZlXVfCdJ0VCblSLsnkI9NCXbCVqGdqT930fb_q7HWF5tJHvrpvPCeewyln673H73f5q_gjNUhDlF2D7hlRGmkeeHZL9P31bgc0_tKod09SkllmP4_mw9_E1gF0JF3fV6vyNRSRMsxClzzjF3F2ei50xEmivj2_utNp-lrv9wE_m00]--></g></svg>