<svg xmlns="http://www.w3.org/2000/svg" xmlns:xlink="http://www.w3.org/1999/xlink" contentStyleType="text/css" data-diagram-type="SEQUENCE" height="714px" preserveAspectRatio="none" style="width:1799px;height:714px;background:#FFFFFF;" version="1.1" viewBox="0 0 1799 714" width="1799px" zoomAndPan="magnify"><defs/><g><g><title>HandlingEventServiceImpl</title><rect fill="#90EE90" height="563.3906" style="stroke:#181818;stroke-width:1;" width="10" x="308.5864" y="97.6953"/></g><g><title>HandlingEventFactory</title><rect fill="#FFB6C1" height="403.7266" style="stroke:#181818;stroke-width:1;" width="10" x="627.1729" y="157.0938"/></g><g><title>CargoRepository</title><rect fill="#ADD8E6" height="29.1328" style="stroke:#181818;stroke-width:1;" width="10" x="798.6753" y="186.2266"/></g><g><title>VoyageRepository</title><rect fill="#ADD8E6" height="29.1328" style="stroke:#181818;stroke-width:1;" width="10" x="953.3203" y="244.4922"/></g><g><title>LocationRepository</title><rect fill="#ADD8E6" height="29.1328" style="stroke:#181818;stroke-width:1;" width="10" x="1120.6084" y="302.7578"/></g><g><title>HandlingEvent</title><rect fill="#FFB6C1" height="130.3984" style="stroke:#181818;stroke-width:1;" width="10" x="1275.2534" y="401.2891"/></g><g><title>HandlingEventRepositoryJPA</title><rect fill="#ADD8E6" height="14" style="stroke:#181818;stroke-width:1;" width="10" x="1504.9199" y="589.9531"/></g><g><title>ApplicationEvents</title><rect fill="#90EE90" height="14" style="stroke:#181818;stroke-width:1;" width="10" x="1710.1372" y="633.0859"/></g><g><title>HandlingEventServiceImpl</title><rect fill="#000000" fill-opacity="0.00000" height="642.7891" width="8" x="309.5864" y="36.2969"/><line style="stroke:#181818;stroke-width:0.5;stroke-dasharray:5.0,5.0;" x1="313.4419" x2="313.4419" y1="36.2969" y2="679.0859"/></g><g><title>HandlingEventFactory</title><rect fill="#000000" fill-opacity="0.00000" height="642.7891" width="8" x="628.1729" y="36.2969"/><line style="stroke:#181818;stroke-width:0.5;stroke-dasharray:5.0,5.0;" x1="631.8857" x2="631.8857" y1="36.2969" y2="679.0859"/></g><g><title>CargoRepository</title><rect fill="#000000" fill-opacity="0.00000" height="642.7891" width="8" x="799.6753" y="36.2969"/><line style="stroke:#181818;stroke-width:0.5;stroke-dasharray:5.0,5.0;" x1="803.46" x2="803.46" y1="36.2969" y2="679.0859"/></g><g><title>VoyageRepository</title><rect fill="#000000" fill-opacity="0.00000" height="642.7891" width="8" x="954.3203" y="36.2969"/><line style="stroke:#181818;stroke-width:0.5;stroke-dasharray:5.0,5.0;" x1="957.8906" x2="957.8906" y1="36.2969" y2="679.0859"/></g><g><title>LocationRepository</title><rect fill="#000000" fill-opacity="0.00000" height="642.7891" width="8" x="1121.6084" y="36.2969"/><line style="stroke:#181818;stroke-width:0.5;stroke-dasharray:5.0,5.0;" x1="1124.75" x2="1124.75" y1="36.2969" y2="679.0859"/></g><g><title>HandlingEvent</title><rect fill="#000000" fill-opacity="0.00000" height="299.4961" width="8" x="1276.2534" y="379.5898"/><line style="stroke:#181818;stroke-width:0.5;stroke-dasharray:5.0,5.0;" x1="1279.4668" x2="1279.4668" y1="379.5898" y2="679.0859"/></g><g><title>HandlingEventRepositoryJPA</title><rect fill="#000000" fill-opacity="0.00000" height="642.7891" width="8" x="1505.9199" y="36.2969"/><line style="stroke:#181818;stroke-width:0.5;stroke-dasharray:5.0,5.0;" x1="1509.3467" x2="1509.3467" y1="36.2969" y2="679.0859"/></g><g><title>ApplicationEvents</title><rect fill="#000000" fill-opacity="0.00000" height="642.7891" width="8" x="1711.1372" y="36.2969"/><line style="stroke:#181818;stroke-width:0.5;stroke-dasharray:5.0,5.0;" x1="1714.4932" x2="1714.4932" y1="36.2969" y2="679.0859"/></g><g class="participant participant-head" data-participant="hes"><rect fill="#90EE90" height="30.2969" rx="2.5" ry="2.5" style="stroke:#181818;stroke-width:0.5;" width="216.2891" x="205.4419" y="5"/><text fill="#000000" font-family="Courier" font-size="14" lengthAdjust="spacing" textLength="202.2891" x="212.4419" y="24.9951">HandlingEventServiceImpl</text></g><g class="participant participant-tail" data-participant="hes"><rect fill="#90EE90" height="30.2969" rx="2.5" ry="2.5" style="stroke:#181818;stroke-width:0.5;" width="216.2891" x="205.4419" y="678.0859"/><text fill="#000000" font-family="Courier" font-size="14" lengthAdjust="spacing" textLength="202.2891" x="212.4419" y="698.0811">HandlingEventServiceImpl</text></g><g class="participant participant-head" data-participant="hef"><rect fill="#FFB6C1" height="30.2969" rx="2.5" ry="2.5" style="stroke:#181818;stroke-width:0.5;" width="182.5742" x="540.8857" y="5"/><text fill="#000000" font-family="Courier" font-size="14" lengthAdjust="spacing" textLength="168.5742" x="547.8857" y="24.9951">HandlingEventFactory</text></g><g class="participant participant-tail" data-participant="hef"><rect fill="#FFB6C1" height="30.2969" rx="2.5" ry="2.5" style="stroke:#181818;stroke-width:0.5;" width="182.5742" x="540.8857" y="678.0859"/><text fill="#000000" font-family="Courier" font-size="14" lengthAdjust="spacing" textLength="168.5742" x="547.8857" y="698.0811">HandlingEventFactory</text></g><g class="participant participant-head" data-participant="cr"><rect fill="#ADD8E6" height="30.2969" rx="2.5" ry="2.5" style="stroke:#181818;stroke-width:0.5;" width="140.4307" x="733.46" y="5"/><text fill="#000000" font-family="Courier" font-size="14" lengthAdjust="spacing" textLength="126.4307" x="740.46" y="24.9951">CargoRepository</text></g><g class="participant participant-tail" data-participant="cr"><rect fill="#ADD8E6" height="30.2969" rx="2.5" ry="2.5" style="stroke:#181818;stroke-width:0.5;" width="140.4307" x="733.46" y="678.0859"/><text fill="#000000" font-family="Courier" font-size="14" lengthAdjust="spacing" textLength="126.4307" x="740.46" y="698.0811">CargoRepository</text></g><g class="participant participant-head" data-participant="vr"><rect fill="#ADD8E6" height="30.2969" rx="2.5" ry="2.5" style="stroke:#181818;stroke-width:0.5;" width="148.8594" x="883.8906" y="5"/><text fill="#000000" font-family="Courier" font-size="14" lengthAdjust="spacing" textLength="134.8594" x="890.8906" y="24.9951">VoyageRepository</text></g><g class="participant participant-tail" data-participant="vr"><rect fill="#ADD8E6" height="30.2969" rx="2.5" ry="2.5" style="stroke:#181818;stroke-width:0.5;" width="148.8594" x="883.8906" y="678.0859"/><text fill="#000000" font-family="Courier" font-size="14" lengthAdjust="spacing" textLength="134.8594" x="890.8906" y="698.0811">VoyageRepository</text></g><g class="participant participant-head" data-participant="lr"><rect fill="#ADD8E6" height="30.2969" rx="2.5" ry="2.5" style="stroke:#181818;stroke-width:0.5;" width="165.7168" x="1042.75" y="5"/><text fill="#000000" font-family="Courier" font-size="14" lengthAdjust="spacing" textLength="151.7168" x="1049.75" y="24.9951">LocationRepository</text></g><g class="participant participant-tail" data-participant="lr"><rect fill="#ADD8E6" height="30.2969" rx="2.5" ry="2.5" style="stroke:#181818;stroke-width:0.5;" width="165.7168" x="1042.75" y="678.0859"/><text fill="#000000" font-family="Courier" font-size="14" lengthAdjust="spacing" textLength="151.7168" x="1049.75" y="698.0811">LocationRepository</text></g><g class="participant participant-tail" data-participant="he"><rect fill="#FFB6C1" height="30.2969" rx="2.5" ry="2.5" style="stroke:#181818;stroke-width:0.5;" width="123.5732" x="1218.4668" y="678.0859"/><text fill="#000000" font-family="Courier" font-size="14" lengthAdjust="spacing" textLength="109.5732" x="1225.4668" y="698.0811">HandlingEvent</text></g><g class="participant participant-head" data-participant="her"><rect fill="#ADD8E6" height="30.2969" rx="2.5" ry="2.5" style="stroke:#181818;stroke-width:0.5;" width="233.1465" x="1393.3467" y="5"/><text fill="#000000" font-family="Courier" font-size="14" lengthAdjust="spacing" textLength="219.1465" x="1400.3467" y="24.9951">HandlingEventRepositoryJPA</text></g><g class="participant participant-tail" data-participant="her"><rect fill="#ADD8E6" height="30.2969" rx="2.5" ry="2.5" style="stroke:#181818;stroke-width:0.5;" width="233.1465" x="1393.3467" y="678.0859"/><text fill="#000000" font-family="Courier" font-size="14" lengthAdjust="spacing" textLength="219.1465" x="1400.3467" y="698.0811">HandlingEventRepositoryJPA</text></g><g class="participant participant-head" data-participant="ae"><rect fill="#90EE90" height="30.2969" rx="2.5" ry="2.5" style="stroke:#181818;stroke-width:0.5;" width="157.2881" x="1636.4932" y="5"/><text fill="#000000" font-family="Courier" font-size="14" lengthAdjust="spacing" textLength="143.2881" x="1643.4932" y="24.9951">ApplicationEvents</text></g><g class="participant participant-tail" data-participant="ae"><rect fill="#90EE90" height="30.2969" rx="2.5" ry="2.5" style="stroke:#181818;stroke-width:0.5;" width="157.2881" x="1636.4932" y="678.0859"/><text fill="#000000" font-family="Courier" font-size="14" lengthAdjust="spacing" textLength="143.2881" x="1643.4932" y="698.0811">ApplicationEvents</text></g><g><title>HandlingEventServiceImpl</title><rect fill="#90EE90" height="563.3906" style="stroke:#181818;stroke-width:1;" width="10" x="308.5864" y="97.6953"/></g><g><title>HandlingEventFactory</title><rect fill="#FFB6C1" height="403.7266" style="stroke:#181818;stroke-width:1;" width="10" x="627.1729" y="157.0938"/></g><g><title>CargoRepository</title><rect fill="#ADD8E6" height="29.1328" style="stroke:#181818;stroke-width:1;" width="10" x="798.6753" y="186.2266"/></g><g><title>VoyageRepository</title><rect fill="#ADD8E6" height="29.1328" style="stroke:#181818;stroke-width:1;" width="10" x="953.3203" y="244.4922"/></g><g><title>LocationRepository</title><rect fill="#ADD8E6" height="29.1328" style="stroke:#181818;stroke-width:1;" width="10" x="1120.6084" y="302.7578"/></g><g><title>HandlingEvent</title><rect fill="#FFB6C1" height="130.3984" style="stroke:#181818;stroke-width:1;" width="10" x="1275.2534" y="401.2891"/></g><g><title>HandlingEventRepositoryJPA</title><rect fill="#ADD8E6" height="14" style="stroke:#181818;stroke-width:1;" width="10" x="1504.9199" y="589.9531"/></g><g><title>ApplicationEvents</title><rect fill="#90EE90" height="14" style="stroke:#181818;stroke-width:1;" width="10" x="1710.1372" y="633.0859"/></g><g class="message" data-participant-1="hes" data-participant-2="hes"><polygon fill="#181818" points="296.5864,93.6953,306.5864,97.6953,296.5864,101.6953,300.5864,97.6953" style="stroke:#181818;stroke-width:1;"/><line style="stroke:#181818;stroke-width:1;" x1="0" x2="302.5864" y1="97.6953" y2="97.6953"/><text fill="#000000" font-family="Courier" font-size="13" lengthAdjust="spacing" textLength="289.5864" x="9.5" y="62.3638">registerHandlingEvent(completionTime,</text><text fill="#000000" font-family="Courier" font-size="13" lengthAdjust="spacing" textLength="195.6665" x="56.46" y="77.4966">trackingId,&#160;voyageNumber,</text><text fill="#000000" font-family="Courier" font-size="13" lengthAdjust="spacing" textLength="117.3999" x="95.5933" y="92.6294">unLocode,&#160;type)</text></g><g class="message" data-participant-1="hes" data-participant-2="hef"><polygon fill="#181818" points="615.1729,153.0938,625.1729,157.0938,615.1729,161.0938,619.1729,157.0938" style="stroke:#181818;stroke-width:1;"/><line style="stroke:#181818;stroke-width:1;" x1="318.5864" x2="621.1729" y1="157.0938" y2="157.0938"/><text fill="#000000" font-family="Courier" font-size="13" lengthAdjust="spacing" textLength="289.5864" x="328.0864" y="121.7622">createHandlingEvent(registrationTime,</text><text fill="#000000" font-family="Courier" font-size="13" lengthAdjust="spacing" textLength="211.3198" x="367.2197" y="136.895">completionTime,&#160;trackingId,</text><text fill="#000000" font-family="Courier" font-size="13" lengthAdjust="spacing" textLength="226.9731" x="359.3931" y="152.0278">voyageNumber,&#160;unLocode,&#160;type)</text></g><g class="message" data-participant-1="hef" data-participant-2="cr"><polygon fill="#181818" points="786.6753,182.2266,796.6753,186.2266,786.6753,190.2266,790.6753,186.2266" style="stroke:#181818;stroke-width:1;"/><line style="stroke:#181818;stroke-width:1;" x1="637.1729" x2="792.6753" y1="186.2266" y2="186.2266"/><text fill="#000000" font-family="Courier" font-size="13" lengthAdjust="spacing" textLength="125.2266" x="655.3108" y="181.1606">find(trackingId)</text></g><g class="message" data-participant-1="cr" data-participant-2="hef"><polygon fill="#181818" points="648.1729,211.3594,638.1729,215.3594,648.1729,219.3594,644.1729,215.3594" style="stroke:#181818;stroke-width:1;"/><line style="stroke:#181818;stroke-width:1;stroke-dasharray:2.0,2.0;" x1="642.1729" x2="802.6753" y1="215.3594" y2="215.3594"/><text fill="#000000" font-family="Courier" font-size="13" lengthAdjust="spacing" textLength="39.1333" x="700.8574" y="210.2935">cargo</text></g><g class="message" data-participant-1="hef" data-participant-2="vr"><polygon fill="#181818" points="941.3203,240.4922,951.3203,244.4922,941.3203,248.4922,945.3203,244.4922" style="stroke:#181818;stroke-width:1;"/><line style="stroke:#181818;stroke-width:1;" x1="637.1729" x2="947.3203" y1="244.4922" y2="244.4922"/><text fill="#000000" font-family="Courier" font-size="13" lengthAdjust="spacing" textLength="140.8799" x="724.8066" y="239.4263">find(voyageNumber)</text></g><g class="message" data-participant-1="vr" data-participant-2="hef"><polygon fill="#181818" points="648.1729,269.625,638.1729,273.625,648.1729,277.625,644.1729,273.625" style="stroke:#181818;stroke-width:1;"/><line style="stroke:#181818;stroke-width:1;stroke-dasharray:2.0,2.0;" x1="642.1729" x2="957.3203" y1="273.625" y2="273.625"/><text fill="#000000" font-family="Courier" font-size="13" lengthAdjust="spacing" textLength="46.96" x="774.2666" y="268.5591">voyage</text></g><g class="message" data-participant-1="hef" data-participant-2="lr"><polygon fill="#181818" points="1108.6084,298.7578,1118.6084,302.7578,1108.6084,306.7578,1112.6084,302.7578" style="stroke:#181818;stroke-width:1;"/><line style="stroke:#181818;stroke-width:1;" x1="637.1729" x2="1114.6084" y1="302.7578" y2="302.7578"/><text fill="#000000" font-family="Courier" font-size="13" lengthAdjust="spacing" textLength="109.5732" x="824.104" y="297.6919">find(unLocode)</text></g><g class="message" data-participant-1="lr" data-participant-2="hef"><polygon fill="#181818" points="648.1729,327.8906,638.1729,331.8906,648.1729,335.8906,644.1729,331.8906" style="stroke:#181818;stroke-width:1;"/><line style="stroke:#181818;stroke-width:1;stroke-dasharray:2.0,2.0;" x1="642.1729" x2="1124.6084" y1="331.8906" y2="331.8906"/><text fill="#000000" font-family="Courier" font-size="13" lengthAdjust="spacing" textLength="62.6133" x="850.084" y="326.8247">location</text></g><g class="message" data-participant-1="hef" data-participant-2="he"><polygon fill="#181818" points="1206.4668,387.2891,1216.4668,391.2891,1206.4668,395.2891,1210.4668,391.2891" style="stroke:#181818;stroke-width:1;"/><line style="stroke:#181818;stroke-width:1;" x1="637.1729" x2="1212.4668" y1="391.2891" y2="391.2891"/><text fill="#000000" font-family="Courier" font-size="13" lengthAdjust="spacing" textLength="203.4932" x="826.0732" y="355.9575">new(cargo,&#160;completionTime,</text><text fill="#000000" font-family="Courier" font-size="13" lengthAdjust="spacing" textLength="180.0132" x="837.8132" y="371.0903">registrationTime,&#160;type,</text><text fill="#000000" font-family="Courier" font-size="13" lengthAdjust="spacing" textLength="133.0532" x="861.2932" y="386.2231">location,&#160;voyage)</text></g><rect fill="#FFB6C1" height="30.2969" rx="2.5" ry="2.5" style="stroke:#181818;stroke-width:0.5;" width="123.5732" x="1218.4668" y="357.9922"/><text fill="#000000" font-family="Courier" font-size="14" lengthAdjust="spacing" textLength="109.5732" x="1225.4668" y="377.9873">HandlingEvent</text><g class="message" data-participant-1="he" data-participant-2="he"><line style="stroke:#181818;stroke-width:1;" x1="1285.2534" x2="1327.2534" y1="420.4219" y2="420.4219"/><line style="stroke:#181818;stroke-width:1;" x1="1327.2534" x2="1327.2534" y1="420.4219" y2="433.4219"/><line style="stroke:#181818;stroke-width:1;" x1="1286.2534" x2="1327.2534" y1="433.4219" y2="433.4219"/><polygon fill="#181818" points="1296.2534,429.4219,1286.2534,433.4219,1296.2534,437.4219,1292.2534,433.4219" style="stroke:#181818;stroke-width:1;"/><text fill="#000000" font-family="Courier" font-size="13" lengthAdjust="spacing" textLength="140.8799" x="1292.2534" y="415.356">validateLocation()</text></g><g class="message" data-participant-1="he" data-participant-2="he"><line style="stroke:#181818;stroke-width:1;" x1="1285.2534" x2="1327.2534" y1="462.5547" y2="462.5547"/><line style="stroke:#181818;stroke-width:1;" x1="1327.2534" x2="1327.2534" y1="462.5547" y2="475.5547"/><line style="stroke:#181818;stroke-width:1;" x1="1286.2534" x2="1327.2534" y1="475.5547" y2="475.5547"/><polygon fill="#181818" points="1296.2534,471.5547,1286.2534,475.5547,1296.2534,479.5547,1292.2534,475.5547" style="stroke:#181818;stroke-width:1;"/><text fill="#000000" font-family="Courier" font-size="13" lengthAdjust="spacing" textLength="125.2266" x="1292.2534" y="457.4888">validateVoyage()</text></g><g class="message" data-participant-1="he" data-participant-2="he"><line style="stroke:#181818;stroke-width:1;" x1="1285.2534" x2="1327.2534" y1="504.6875" y2="504.6875"/><line style="stroke:#181818;stroke-width:1;" x1="1327.2534" x2="1327.2534" y1="504.6875" y2="517.6875"/><line style="stroke:#181818;stroke-width:1;" x1="1286.2534" x2="1327.2534" y1="517.6875" y2="517.6875"/><polygon fill="#181818" points="1296.2534,513.6875,1286.2534,517.6875,1296.2534,521.6875,1292.2534,517.6875" style="stroke:#181818;stroke-width:1;"/><text fill="#000000" font-family="Courier" font-size="13" lengthAdjust="spacing" textLength="195.6665" x="1292.2534" y="499.6216">validateTimeConstraints()</text></g><g class="message" data-participant-1="he" data-participant-2="hef"><polygon fill="#181818" points="648.1729,527.6875,638.1729,531.6875,648.1729,535.6875,644.1729,531.6875" style="stroke:#181818;stroke-width:1;"/><line style="stroke:#181818;stroke-width:1;stroke-dasharray:2.0,2.0;" x1="642.1729" x2="1279.2534" y1="531.6875" y2="531.6875"/></g><g class="message" data-participant-1="hef" data-participant-2="hes"><polygon fill="#181818" points="329.5864,556.8203,319.5864,560.8203,329.5864,564.8203,325.5864,560.8203" style="stroke:#181818;stroke-width:1;"/><line style="stroke:#181818;stroke-width:1;stroke-dasharray:2.0,2.0;" x1="323.5864" x2="631.1729" y1="560.8203" y2="560.8203"/><text fill="#000000" font-family="Courier" font-size="13" lengthAdjust="spacing" textLength="39.1333" x="455.813" y="555.7544">event</text></g><g class="message" data-participant-1="hes" data-participant-2="her"><polygon fill="#181818" points="1492.9199,585.9531,1502.9199,589.9531,1492.9199,593.9531,1496.9199,589.9531" style="stroke:#181818;stroke-width:1;"/><line style="stroke:#181818;stroke-width:1;" x1="318.5864" x2="1498.9199" y1="589.9531" y2="589.9531"/><text fill="#000000" font-family="Courier" font-size="13" lengthAdjust="spacing" textLength="93.9199" x="864.7932" y="584.8872">store(event)</text></g><g class="message" data-participant-1="her" data-participant-2="hes"><polygon fill="#181818" points="329.5864,599.9531,319.5864,603.9531,329.5864,607.9531,325.5864,603.9531" style="stroke:#181818;stroke-width:1;"/><line style="stroke:#181818;stroke-width:1;stroke-dasharray:2.0,2.0;" x1="323.5864" x2="1508.9199" y1="603.9531" y2="603.9531"/></g><g class="message" data-participant-1="hes" data-participant-2="ae"><polygon fill="#181818" points="1698.1372,629.0859,1708.1372,633.0859,1698.1372,637.0859,1702.1372,633.0859" style="stroke:#181818;stroke-width:1;"/><line style="stroke:#181818;stroke-width:1;" x1="318.5864" x2="1704.1372" y1="633.0859" y2="633.0859"/><text fill="#000000" font-family="Courier" font-size="13" lengthAdjust="spacing" textLength="172.1865" x="928.2686" y="628.02">cargoWasHandled(event)</text></g><g class="message" data-participant-1="ae" data-participant-2="hes"><polygon fill="#181818" points="329.5864,643.0859,319.5864,647.0859,329.5864,651.0859,325.5864,647.0859" style="stroke:#181818;stroke-width:1;"/><line style="stroke:#181818;stroke-width:1;stroke-dasharray:2.0,2.0;" x1="323.5864" x2="1714.1372" y1="647.0859" y2="647.0859"/></g><g class="message" data-participant-1="hes" data-participant-2="hes"><polygon fill="#181818" points="11,657.0859,1,661.0859,11,665.0859,7,661.0859" style="stroke:#181818;stroke-width:1;"/><line style="stroke:#181818;stroke-width:1;stroke-dasharray:2.0,2.0;" x1="5" x2="312.5864" y1="661.0859" y2="661.0859"/></g><!--SRC=[VLD1Rjim4Bph5KHoKG3x0qPHm30Q94KJ56tH7fBBXbh9H2XI9IaM_drNb2YJafsZj3Epixj3-ovK1mPQrcgb-T7e5baDqc9XvrA5DVJItMlbde7g1zqRWIP1MFpRe-BuXDP2Wtif6iKuAaUeWY1ESD61Skpc0LGbXMg-UAh-HEC5nyUsapSCB3kYPRV4FRh68AeFcFV0dJQdYLLFh4wezvnq0DFe7zXfAsOyDnFyJVQOmt_h4zbVuFrr_3VDmGcj5WnvdP5DCTc_wZu3dtjy_RwVcDVxxBjEYj5SODl00CpsMxniFmzBtp63ZR1qhQnZoJLT1WUDNwB5pQjo1ZWTlNciDio7NJttxHiQAlMAbg4ht31twl2ke0C93mvNHos67w5llQDR867ohgCN0qdVXH6M-7XLcH7sWOyi9iNmJJQusR5QgAeyQoQaF2lqjPsT3yagAaoWiwQFcgcrH3LFb4zKHq8gwy-oCih66HF9F78oaPHJHbDHIQBZwWaJvO-uOmh_bM6o3LiTVtMNi64gn0un4zdI5pkFZJn8KH4Ylg3oxa9nV8uNIuE1WrQ37q7f9am0ZKEdez9yuu0nwZY4B4VKIIXfnvOU6PO1busIhNZud3HpCJEB0Kun-GCsH1ohbUhYHG9U4WMQuUNJThjkPel_]--></g></svg>